<svg xmlns="http://www.w3.org/2000/svg" xmlns:xlink="http://www.w3.org/1999/xlink" width="816" zoomAndPan="magnify" viewBox="0 0 612 791.999994" height="1056" preserveAspectRatio="xMidYMid meet" version="1.0"><defs><filter x="0%" y="0%" width="100%" height="100%" id="91849a410e"><feColorMatrix values="0 0 0 0 1 0 0 0 0 1 0 0 0 0 1 0 0 0 1 0" color-interpolation-filters="sRGB"/></filter><clipPath id="6157c9d424"><path d="M 20 84.332031 L 442 84.332031 L 442 373 L 20 373 Z M 20 84.332031 " clip-rule="nonzero"/></clipPath><clipPath id="f974626f86"><path d="M 365 551 L 405 551 L 405 707.582031 L 365 707.582031 Z M 365 551 " clip-rule="nonzero"/></clipPath><clipPath id="060f33c668"><path d="M 491 551 L 528 551 L 528 707.582031 L 491 707.582031 Z M 491 551 " clip-rule="nonzero"/></clipPath><clipPath id="f96bcfc2c8"><path d="M 549 551 L 590 551 L 590 707.582031 L 549 707.582031 Z M 549 551 " clip-rule="nonzero"/></clipPath><clipPath id="47e831d67f"><path d="M 365 551 L 405 551 L 405 707.582031 L 365 707.582031 Z M 365 551 " clip-rule="nonzero"/></clipPath><clipPath id="bb12349f74"><path d="M 491 551 L 528 551 L 528 707.582031 L 491 707.582031 Z M 491 551 " clip-rule="nonzero"/></clipPath><clipPath id="d17f5e98f2"><path d="M 549 551 L 590 551 L 590 707.582031 L 549 707.582031 Z M 549 551 " clip-rule="nonzero"/></clipPath><clipPath id="9aefb0857c"><path d="M 363 549 L 592 549 L 592 707.582031 L 363 707.582031 Z M 363 549 " clip-rule="nonzero"/></clipPath><mask id="6b86562735"><g filter="url(#91849a410e)"><rect x="-61.2" width="734.4" fill="#000000" y="-79.199999" height="950.399992" fill-opacity="0.31"/></g></mask><clipPath id="1ef3b54fa0"><path d="M 2 2 L 42 2 L 42 158.582031 L 2 158.582031 Z M 2 2 " clip-rule="nonzero"/></clipPath><clipPath id="34993e3583"><path d="M 128 2 L 165 2 L 165 158.582031 L 128 158.582031 Z M 128 2 " clip-rule="nonzero"/></clipPath><clipPath id="903756f313"><path d="M 186 2 L 227 2 L 227 158.582031 L 186 158.582031 Z M 186 2 " clip-rule="nonzero"/></clipPath><clipPath id="9a86c139ba"><rect x="0" width="229" y="0" height="159"/></clipPath><clipPath id="03b2659858"><path d="M 399 669 L 425 669 L 425 685.746094 L 399 685.746094 Z M 399 669 " clip-rule="nonzero"/></clipPath><clipPath id="8b348338f7"><path d="M 445.035156 641.691406 C 445.035156 641.691406 437.664062 653.53125 427.75 646.625 L 399.796875 685.746094 L 458.820312 655.871094 Z M 445.035156 641.691406 " clip-rule="nonzero"/></clipPath><clipPath id="1929556fbd"><path d="M 355.050781 682 L 379 682 L 379 696.484375 L 355.050781 696.484375 Z M 355.050781 682 " clip-rule="nonzero"/></clipPath><clipPath id="a36cd73851"><path d="M 415.4375 675.917969 C 415.4375 675.917969 403.675781 683.410156 397.71875 672.894531 L 355.597656 696.089844 L 421.734375 694.660156 Z M 415.4375 675.917969 " clip-rule="nonzero"/></clipPath><clipPath id="1038424006"><path d="M 304 477 L 320 477 L 320 707.582031 L 304 707.582031 Z M 304 477 " clip-rule="nonzero"/></clipPath><clipPath id="bcc4d5df50"><path d="M 540 477 L 556 477 L 556 707.582031 L 540 707.582031 Z M 540 477 " clip-rule="nonzero"/></clipPath></defs><path fill="#ffffff" d="M 484.085938 362.679688 L 584.800781 362.679688 C 600.363281 362.679688 611.988281 375.644531 608.796875 389.441406 L 576.625 528.644531 L 576.625 540.5 C 576.625 547.769531 570.125 553.660156 562.097656 553.660156 L 432.414062 553.660156 L 432.414062 503.464844 L 521.988281 497.167969 Z M 484.085938 362.679688 " fill-opacity="1" fill-rule="nonzero"/><path fill="#ffad65" d="M 515.769531 404.640625 L 531.246094 463.761719 C 532.578125 470.34375 539.277344 474.363281 545.714844 472.433594 C 551.082031 470.824219 554.488281 465.558594 553.753906 460.003906 L 544.894531 410.804688 Z M 515.769531 404.640625 " fill-opacity="1" fill-rule="nonzero"/><g clip-path="url(#6157c9d424)"><path fill="#000000" d="M 20.582031 84.332031 L 441.988281 84.332031 L 441.988281 372.234375 L 20.582031 372.234375 Z M 20.582031 84.332031 " fill-opacity="1" fill-rule="nonzero"/></g><path fill="#ffffff" d="M 434.148438 92.171875 L 434.148438 364.398438 L 28.417969 364.398438 L 28.417969 92.171875 Z M 434.148438 92.171875 " fill-opacity="1" fill-rule="nonzero"/><path fill="#000000" d="M 164.476562 684.769531 L 180.738281 692.597656 C 182.464844 693.425781 183.507812 695.324219 182.972656 697.125 C 182.550781 698.546875 181.160156 699.632812 177.542969 699.695312 C 169.5 699.835938 133.921875 694.652344 133.921875 694.652344 L 133.921875 698.292969 L 117.410156 696.472656 C 117.410156 696.472656 116.253906 678.058594 121.28125 675.363281 Z M 164.476562 684.769531 " fill-opacity="1" fill-rule="nonzero"/><path fill="#ffad65" d="M 142.6875 669.222656 L 164.476562 684.769531 C 164.476562 684.769531 161.671875 691.800781 149.253906 687.113281 C 136.839844 682.425781 121.285156 675.367188 121.285156 675.367188 L 122.851562 664.875 Z M 142.6875 669.222656 " fill-opacity="1" fill-rule="nonzero"/><path fill="#ffad65" d="M 122.765625 667.230469 L 124.832031 610.789062 L 151.871094 609.253906 L 147.445312 676.492188 Z M 122.765625 667.230469 " fill-opacity="1" fill-rule="nonzero"/><path fill="#000000" d="M 83.832031 684.769531 L 100.097656 692.597656 C 101.820312 693.425781 102.863281 695.324219 102.328125 697.125 C 101.90625 698.546875 100.515625 699.632812 96.898438 699.695312 C 88.859375 699.835938 53.277344 694.652344 53.277344 694.652344 L 53.277344 698.292969 L 36.765625 696.472656 C 36.765625 696.472656 35.613281 678.058594 40.640625 675.363281 Z M 83.832031 684.769531 " fill-opacity="1" fill-rule="nonzero"/><path fill="#ffad65" d="M 62.042969 669.222656 L 83.835938 684.769531 C 83.835938 684.769531 81.03125 691.800781 68.613281 687.113281 C 56.199219 682.425781 40.644531 675.367188 40.644531 675.367188 L 42.210938 664.875 Z M 62.042969 669.222656 " fill-opacity="1" fill-rule="nonzero"/><path fill="#ffad65" d="M 42.125 667.230469 L 44.191406 610.789062 L 71.226562 609.253906 L 66.804688 676.492188 Z M 42.125 667.230469 " fill-opacity="1" fill-rule="nonzero"/><path fill="#000000" d="M 104.613281 125.800781 C 103.40625 125.769531 100.890625 129.003906 100.128906 129.941406 C 98.390625 132.09375 96.648438 134.261719 95.203125 136.628906 C 89.570312 145.867188 89.332031 156.117188 88.617188 166.59375 C 87.90625 176.976562 86.359375 187.515625 81.738281 196.84375 C 79.476562 201.410156 76.5 205.632812 74.648438 210.382812 C 72.792969 215.128906 72.191406 220.730469 74.691406 225.175781 C 74.921875 225.585938 75.195312 226 75.601562 226.230469 C 87.507812 233.042969 102.550781 235.152344 115.921875 232.09375 C 119.628906 231.246094 123.304688 230.097656 126.566406 228.144531 C 135.816406 222.59375 140.257812 211.371094 141.160156 200.625 C 142.0625 189.875 140.074219 179.117188 139.636719 168.339844 C 139.3125 160.480469 139.738281 152.234375 136.253906 145.183594 C 134.660156 141.945312 132.316406 139.148438 129.996094 136.382812 C 127.554688 133.46875 125.039062 130.496094 121.753906 128.582031 C 117.007812 125.820312 110.101562 125.957031 104.613281 125.800781 Z M 104.613281 125.800781 " fill-opacity="1" fill-rule="nonzero"/><path fill="#3f2952" d="M 161.074219 324.964844 C 161.074219 324.964844 170.121094 330.8125 171.761719 379.664062 C 172.097656 389.707031 171.898438 403.65625 171.273438 413.679688 L 156.265625 650.820312 L 116.371094 650.820312 L 124.433594 395.964844 L 73.445312 650.820312 L 34.613281 649.722656 L 78.324219 324.964844 L 117.574219 320.179688 Z M 161.074219 324.964844 " fill-opacity="1" fill-rule="nonzero"/><path fill="#000000" d="M 122.898438 396.539062 C 122.625 396.539062 122.378906 396.339844 122.335938 396.058594 C 122.285156 395.75 122.496094 395.453125 122.804688 395.398438 L 145.65625 391.609375 C 145.964844 391.582031 146.265625 391.769531 146.316406 392.082031 C 146.367188 392.394531 146.15625 392.691406 145.84375 392.742188 L 122.996094 396.53125 C 122.960938 396.535156 122.929688 396.539062 122.898438 396.539062 Z M 122.898438 396.539062 " fill-opacity="1" fill-rule="nonzero"/><path fill="#ffad65" d="M 186.40625 335.445312 L 250.476562 270.621094 L 243.375 260.09375 C 243.375 260.09375 197.632812 292.210938 168.40625 315.300781 C 163.769531 318.960938 166.605469 330.0625 170.628906 334.386719 C 174.398438 338.441406 182.347656 339.210938 186.40625 335.445312 Z M 186.40625 335.445312 " fill-opacity="1" fill-rule="nonzero"/><path fill="#ffad65" d="M 244.664062 272.410156 C 244.664062 272.410156 255.695312 273.269531 263.472656 264.40625 L 274.585938 261.328125 C 276.3125 260.851562 277.382812 259.183594 277.097656 257.421875 C 276.789062 255.515625 275.003906 254.15625 273.066406 254.351562 L 266.128906 255.054688 L 268.042969 253.613281 C 271.085938 251.332031 274.847656 250.144531 278.722656 250.25 L 289.746094 250.542969 C 291.003906 250.574219 292.160156 249.933594 292.761719 248.867188 C 293.933594 246.808594 292.597656 244.179688 290.191406 243.816406 L 275.75 241.621094 C 270.148438 240.773438 264.511719 242.332031 260.28125 245.902344 L 237.53125 265.078125 Z M 244.664062 272.410156 " fill-opacity="1" fill-rule="nonzero"/><path fill="#ffad65" d="M 148.746094 243.117188 C 148.746094 243.117188 154.257812 291.429688 165.609375 328.253906 C 166.976562 332.6875 175.46875 338.675781 180.097656 338.984375 C 187.082031 339.445312 192.773438 333.460938 191.960938 326.511719 L 178.113281 240.277344 Z M 148.746094 243.117188 " fill-opacity="1" fill-rule="nonzero"/><path fill="#f89a00" d="M 161.941406 213.078125 C 161.941406 213.078125 185.425781 227.070312 189.988281 264.96875 L 156.460938 283.386719 Z M 161.941406 213.078125 " fill-opacity="1" fill-rule="nonzero"/><path fill="#f89a00" d="M 156.460938 283.386719 L 194.515625 272.011719 L 191.269531 261.351562 L 157.320312 270.484375 Z M 156.460938 283.386719 " fill-opacity="1" fill-rule="nonzero"/><path fill="#f89a00" d="M 117.089844 201.242188 C 105.527344 202.226562 94.128906 204.765625 83.359375 209.074219 C 80.71875 210.128906 78.121094 211.285156 75.742188 212.53125 C 68.253906 216.449219 70.496094 224.910156 71.4375 233.550781 L 75.835938 350.378906 L 170.109375 347.984375 L 173.847656 237.402344 C 174.675781 225.359375 167.546875 214.289062 156.527344 210.40625 C 144.179688 206.050781 129.113281 201.175781 122.542969 200.78125 Z M 117.089844 201.242188 " fill-opacity="1" fill-rule="nonzero"/><path fill="#000000" d="M 171.09375 278.085938 C 171.082031 278.085938 171.070312 278.085938 171.054688 278.085938 C 170.742188 278.0625 170.5 277.789062 170.523438 277.472656 L 172.871094 243.261719 C 172.894531 242.945312 173.171875 242.722656 173.480469 242.730469 C 173.796875 242.75 174.035156 243.023438 174.011719 243.339844 L 171.667969 277.550781 C 171.644531 277.855469 171.394531 278.085938 171.09375 278.085938 Z M 171.09375 278.085938 " fill-opacity="1" fill-rule="nonzero"/><path fill="#f89a00" d="M 150.972656 208.476562 C 150.972656 208.476562 133.617188 201.679688 122.542969 200.777344 C 122.542969 200.777344 107.40625 201.421875 97.003906 204.625 C 97.003906 204.625 102.773438 216.9375 129.339844 218.957031 C 155.90625 220.976562 150.972656 208.476562 150.972656 208.476562 Z M 150.972656 208.476562 " fill-opacity="1" fill-rule="nonzero"/><path fill="#ffad65" d="M 23.179688 267.5 L 67.511719 335.195312 L 55.570312 348.742188 L 6.632812 299.007812 Z M 23.179688 267.5 " fill-opacity="1" fill-rule="nonzero"/><path fill="#ffad65" d="M 108.246094 338.277344 L 89.285156 328.277344 L 91.144531 323.957031 C 91.824219 322.386719 91.402344 320.539062 90.121094 319.449219 C 88.796875 318.320312 86.898438 318.289062 85.539062 319.371094 L 66.863281 334.582031 L 55.574219 348.742188 C 65.820312 357.839844 72.511719 357.726562 76.371094 355.960938 C 76.820312 356.117188 77.265625 356.289062 77.722656 356.425781 L 93.480469 361.113281 C 94.9375 361.765625 96.632812 361.128906 97.351562 359.660156 C 97.871094 358.59375 98.050781 356.882812 95.019531 355.285156 L 98.050781 356.882812 C 99.59375 357.574219 101.386719 356.875 102.105469 355.300781 C 102.78125 353.910156 101.949219 352.074219 100.167969 350.871094 L 102.492188 351.816406 C 104.171875 352.570312 106.152344 351.710938 106.78125 349.859375 C 107.328125 348.261719 106.511719 346.492188 105.050781 345.726562 L 101.699219 343.96875 L 105.679688 344.96875 C 107.511719 345.640625 109.554688 344.625 110.15625 342.632812 C 110.671875 340.925781 109.785156 339.089844 108.246094 338.277344 Z M 108.246094 338.277344 " fill-opacity="1" fill-rule="nonzero"/><path fill="#000000" d="M 102.707031 344.835938 C 102.652344 344.835938 102.59375 344.824219 102.542969 344.796875 L 91.332031 339.308594 C 91.148438 339.21875 91.070312 338.996094 91.160156 338.8125 C 91.253906 338.628906 91.480469 338.550781 91.660156 338.640625 L 102.871094 344.128906 C 103.054688 344.21875 103.128906 344.441406 103.042969 344.625 C 102.976562 344.757812 102.84375 344.835938 102.707031 344.835938 Z M 102.707031 344.835938 " fill-opacity="1" fill-rule="nonzero"/><path fill="#000000" d="M 99.691406 351.039062 C 99.640625 351.039062 99.589844 351.03125 99.546875 351.007812 L 88.734375 346.339844 C 88.546875 346.257812 88.460938 346.039062 88.542969 345.851562 C 88.625 345.660156 88.84375 345.574219 89.03125 345.65625 L 99.839844 350.324219 C 100.03125 350.40625 100.117188 350.625 100.035156 350.816406 C 99.972656 350.957031 99.835938 351.039062 99.691406 351.039062 Z M 99.691406 351.039062 " fill-opacity="1" fill-rule="nonzero"/><path fill="#000000" d="M 96.023438 356.070312 C 95.976562 356.070312 95.925781 356.0625 95.878906 356.042969 L 86.722656 352.296875 C 86.53125 352.21875 86.4375 352 86.519531 351.808594 C 86.59375 351.621094 86.816406 351.527344 87.003906 351.605469 L 96.160156 355.351562 C 96.351562 355.429688 96.445312 355.648438 96.367188 355.835938 C 96.308594 355.980469 96.167969 356.070312 96.023438 356.070312 Z M 96.023438 356.070312 " fill-opacity="1" fill-rule="nonzero"/><path fill="#ffad65" d="M 85.359375 248.839844 L 28.984375 299.273438 C 23.722656 304.789062 15.417969 305.636719 9.222656 301.285156 C 1.414062 295.804688 0.0703125 284.429688 6.375 277.152344 L 59.386719 223.433594 C 65.722656 216.125 76.460938 215.226562 83.84375 221.378906 C 92.101562 228.253906 92.808594 241.03125 85.359375 248.839844 Z M 85.359375 248.839844 " fill-opacity="1" fill-rule="nonzero"/><path fill="#f89a00" d="M 86.597656 207.832031 C 86.597656 207.832031 63.957031 212.410156 35.851562 247.285156 L 59.921875 279.582031 L 96.597656 252.34375 Z M 86.597656 207.832031 " fill-opacity="1" fill-rule="nonzero"/><path fill="#f89a00" d="M 59.210938 280.078125 L 68.992188 272.8125 L 42.621094 236.324219 L 32.632812 243.707031 Z M 59.210938 280.078125 " fill-opacity="1" fill-rule="nonzero"/><path fill="#000000" d="M 72.375 270.910156 C 72.199219 270.910156 72.023438 270.828125 71.914062 270.679688 C 71.722656 270.425781 71.777344 270.0625 72.03125 269.875 L 93.304688 254.074219 C 93.558594 253.886719 93.921875 253.9375 94.109375 254.191406 C 94.296875 254.449219 94.246094 254.808594 93.988281 254.996094 L 72.714844 270.796875 C 72.613281 270.871094 72.492188 270.910156 72.375 270.910156 Z M 72.375 270.910156 " fill-opacity="1" fill-rule="nonzero"/><path fill="#000000" d="M 126.113281 117.980469 C 126.113281 117.980469 147.945312 111.550781 158.523438 120.949219 C 174.015625 134.714844 154.863281 145.105469 154.863281 145.105469 Z M 126.113281 117.980469 " fill-opacity="1" fill-rule="nonzero"/><path fill="#000000" d="M 159.351562 148.59375 C 159.390625 149.636719 159.375 150.675781 159.304688 151.714844 C 159.238281 152.757812 159.113281 153.792969 158.9375 154.820312 C 158.761719 155.847656 158.535156 156.867188 158.253906 157.875 C 157.976562 158.882812 157.644531 159.875 157.261719 160.855469 C 156.878906 161.832031 156.449219 162.789062 155.96875 163.726562 C 155.488281 164.664062 154.957031 165.574219 154.382812 166.460938 C 153.808594 167.351562 153.191406 168.210938 152.527344 169.039062 C 151.867188 169.871094 151.164062 170.667969 150.417969 171.433594 C 149.671875 172.195312 148.890625 172.925781 148.074219 173.617188 C 147.253906 174.308594 146.402344 174.957031 145.515625 175.570312 C 144.628906 176.183594 143.714844 176.75 142.769531 177.277344 C 141.824219 177.804688 140.855469 178.285156 139.863281 178.71875 C 138.871094 179.15625 137.855469 179.542969 136.824219 179.882812 C 135.789062 180.222656 134.742188 180.515625 133.679688 180.757812 C 132.617188 181 131.542969 181.191406 130.460938 181.332031 C 129.378906 181.476562 128.292969 181.566406 127.203125 181.605469 C 126.113281 181.644531 125.019531 181.636719 123.929688 181.574219 C 122.84375 181.511719 121.757812 181.398438 120.679688 181.234375 C 119.601562 181.070312 118.535156 180.855469 117.480469 180.589844 C 116.425781 180.328125 115.386719 180.015625 114.363281 179.652344 C 113.34375 179.292969 112.339844 178.882812 111.359375 178.425781 C 110.378906 177.972656 109.425781 177.472656 108.496094 176.925781 C 107.570312 176.382812 106.671875 175.792969 105.804688 175.164062 C 104.9375 174.535156 104.101562 173.867188 103.304688 173.15625 C 102.507812 172.449219 101.746094 171.707031 101.023438 170.925781 C 100.304688 170.148438 99.625 169.335938 98.984375 168.492188 C 98.347656 167.648438 97.753906 166.777344 97.207031 165.878906 C 96.660156 164.976562 96.160156 164.054688 95.707031 163.109375 C 95.253906 162.160156 94.851562 161.195312 94.496094 160.210938 C 94.144531 159.226562 93.839844 158.226562 93.589844 157.214844 C 93.339844 156.199219 93.144531 155.179688 93 154.144531 C 92.855469 153.113281 92.761719 152.078125 92.722656 151.035156 C 92.6875 149.996094 92.699219 148.953125 92.769531 147.914062 C 92.839844 146.875 92.960938 145.839844 93.136719 144.808594 C 93.3125 143.78125 93.539062 142.761719 93.820312 141.753906 C 94.101562 140.746094 94.433594 139.753906 94.8125 138.777344 C 95.195312 137.800781 95.628906 136.84375 96.109375 135.90625 C 96.589844 134.96875 97.117188 134.054688 97.691406 133.167969 C 98.265625 132.28125 98.882812 131.421875 99.546875 130.589844 C 100.210938 129.761719 100.914062 128.960938 101.65625 128.199219 C 102.402344 127.433594 103.183594 126.707031 104.003906 126.015625 C 104.824219 125.324219 105.675781 124.671875 106.5625 124.058594 C 107.445312 123.449219 108.363281 122.878906 109.304688 122.351562 C 110.25 121.828125 111.21875 121.347656 112.214844 120.910156 C 113.207031 120.476562 114.21875 120.085938 115.253906 119.746094 C 116.285156 119.40625 117.332031 119.117188 118.394531 118.875 C 119.457031 118.628906 120.53125 118.4375 121.613281 118.296875 C 122.695312 118.15625 123.78125 118.0625 124.871094 118.023438 C 125.964844 117.984375 127.054688 117.996094 128.144531 118.058594 C 129.234375 118.121094 130.316406 118.234375 131.394531 118.398438 C 132.472656 118.5625 133.539062 118.773438 134.59375 119.039062 C 135.648438 119.304688 136.6875 119.617188 137.710938 119.976562 C 138.734375 120.339844 139.734375 120.746094 140.714844 121.203125 C 141.695312 121.660156 142.648438 122.160156 143.578125 122.703125 C 144.507812 123.25 145.402344 123.835938 146.273438 124.464844 C 147.140625 125.097656 147.972656 125.765625 148.769531 126.472656 C 149.570312 127.179688 150.328125 127.925781 151.050781 128.703125 C 151.773438 129.484375 152.453125 130.292969 153.089844 131.136719 C 153.726562 131.980469 154.320312 132.851562 154.867188 133.753906 C 155.417969 134.652344 155.917969 135.574219 156.371094 136.523438 C 156.824219 137.46875 157.226562 138.433594 157.578125 139.417969 C 157.933594 140.402344 158.234375 141.402344 158.484375 142.417969 C 158.734375 143.429688 158.933594 144.453125 159.078125 145.484375 C 159.222656 146.515625 159.3125 147.554688 159.351562 148.59375 Z M 159.351562 148.59375 " fill-opacity="1" fill-rule="nonzero"/><path fill="#ffad65" d="M 166.238281 160.609375 C 166.238281 161.175781 166.183594 161.738281 166.074219 162.292969 C 165.960938 162.847656 165.800781 163.386719 165.582031 163.910156 C 165.367188 164.433594 165.101562 164.933594 164.785156 165.402344 C 164.46875 165.875 164.113281 166.308594 163.710938 166.710938 C 163.3125 167.109375 162.875 167.46875 162.40625 167.78125 C 161.933594 168.097656 161.4375 168.363281 160.914062 168.578125 C 160.390625 168.796875 159.851562 168.960938 159.296875 169.070312 C 158.738281 169.179688 158.179688 169.238281 157.613281 169.238281 C 157.046875 169.238281 156.484375 169.179688 155.929688 169.070312 C 155.375 168.960938 154.835938 168.796875 154.3125 168.578125 C 153.789062 168.363281 153.289062 168.097656 152.820312 167.78125 C 152.347656 167.46875 151.914062 167.109375 151.511719 166.710938 C 151.113281 166.308594 150.753906 165.875 150.4375 165.402344 C 150.125 164.933594 149.859375 164.433594 149.640625 163.910156 C 149.425781 163.386719 149.261719 162.847656 149.152344 162.292969 C 149.039062 161.738281 148.984375 161.175781 148.984375 160.609375 C 148.984375 160.042969 149.039062 159.484375 149.152344 158.929688 C 149.261719 158.371094 149.425781 157.832031 149.640625 157.308594 C 149.859375 156.785156 150.125 156.289062 150.4375 155.820312 C 150.753906 155.347656 151.113281 154.910156 151.511719 154.511719 C 151.914062 154.109375 152.347656 153.753906 152.820312 153.4375 C 153.289062 153.125 153.789062 152.859375 154.3125 152.640625 C 154.835938 152.425781 155.375 152.261719 155.929688 152.152344 C 156.484375 152.039062 157.046875 151.984375 157.613281 151.984375 C 158.179688 151.984375 158.738281 152.039062 159.296875 152.152344 C 159.851562 152.261719 160.390625 152.425781 160.914062 152.640625 C 161.4375 152.859375 161.933594 153.125 162.40625 153.4375 C 162.875 153.753906 163.3125 154.109375 163.710938 154.511719 C 164.113281 154.910156 164.46875 155.347656 164.785156 155.820312 C 165.101562 156.289062 165.367188 156.785156 165.582031 157.308594 C 165.800781 157.832031 165.960938 158.371094 166.074219 158.929688 C 166.183594 159.484375 166.238281 160.042969 166.238281 160.609375 Z M 166.238281 160.609375 " fill-opacity="1" fill-rule="nonzero"/><path fill="#ffad65" d="M 137.667969 180.578125 L 138.199219 213.46875 L 113.796875 212.972656 L 117.152344 163.082031 Z M 137.667969 180.578125 " fill-opacity="1" fill-rule="nonzero"/><path fill="#000000" d="M 137.949219 197.921875 L 119.6875 178.398438 L 137.667969 180.578125 Z M 137.949219 197.921875 " fill-opacity="1" fill-rule="nonzero"/><path fill="#ffad65" d="M 154.335938 129.929688 C 156.578125 131.6875 158.058594 134.214844 158.714844 136.976562 C 160.667969 145.164062 164.4375 159.578125 161.835938 168.4375 C 158.457031 179.957031 149.507812 188.367188 134.460938 186.074219 C 134.460938 186.074219 116.492188 184.921875 111.980469 162.382812 C 104.792969 126.472656 135.136719 114.875 154.335938 129.929688 Z M 154.335938 129.929688 " fill-opacity="1" fill-rule="nonzero"/><path fill="#000000" d="M 151.351562 165.25 C 151.113281 165.25 150.898438 165.085938 150.84375 164.847656 C 150.78125 164.566406 150.960938 164.289062 151.238281 164.226562 L 153.351562 163.757812 C 153.507812 163.707031 153.621094 163.503906 153.570312 163.304688 L 152.078125 159.671875 C 151.972656 159.40625 152.097656 159.105469 152.363281 158.996094 C 152.628906 158.890625 152.929688 159.019531 153.035156 159.28125 L 154.550781 162.976562 C 154.761719 163.777344 154.339844 164.53125 153.613281 164.753906 L 151.464844 165.238281 C 151.425781 165.246094 151.386719 165.25 151.351562 165.25 Z M 151.351562 165.25 " fill-opacity="1" fill-rule="nonzero"/><path fill="#000000" d="M 143.152344 155.699219 C 143.152344 155.980469 143.101562 156.25 142.992188 156.507812 C 142.886719 156.765625 142.734375 156.992188 142.535156 157.1875 C 142.339844 157.386719 142.113281 157.539062 141.855469 157.644531 C 141.59375 157.753906 141.328125 157.804688 141.046875 157.804688 C 140.769531 157.804688 140.5 157.753906 140.242188 157.644531 C 139.984375 157.539062 139.757812 157.386719 139.558594 157.1875 C 139.363281 156.992188 139.210938 156.765625 139.101562 156.507812 C 138.996094 156.25 138.941406 155.980469 138.941406 155.699219 C 138.941406 155.421875 138.996094 155.152344 139.101562 154.894531 C 139.210938 154.636719 139.363281 154.410156 139.558594 154.210938 C 139.757812 154.015625 139.984375 153.863281 140.242188 153.757812 C 140.5 153.648438 140.769531 153.597656 141.046875 153.597656 C 141.328125 153.597656 141.59375 153.648438 141.855469 153.757812 C 142.113281 153.863281 142.339844 154.015625 142.535156 154.210938 C 142.734375 154.410156 142.886719 154.636719 142.992188 154.894531 C 143.101562 155.152344 143.152344 155.421875 143.152344 155.699219 Z M 143.152344 155.699219 " fill-opacity="1" fill-rule="nonzero"/><path fill="#000000" d="M 155.808594 154.976562 C 155.808594 156.054688 156.679688 156.925781 157.757812 156.925781 C 158.835938 156.925781 159.710938 156.054688 159.710938 154.976562 C 159.710938 153.898438 158.835938 153.023438 157.757812 153.023438 C 156.679688 153.023438 155.808594 153.898438 155.808594 154.976562 Z M 155.808594 154.976562 " fill-opacity="1" fill-rule="nonzero"/><path fill="#000000" d="M 148.714844 171.113281 C 146.511719 171.113281 143.871094 170.539062 141.425781 168.507812 C 141.210938 168.328125 141.179688 168 141.359375 167.78125 C 141.546875 167.5625 141.871094 167.53125 142.089844 167.714844 C 147.070312 171.851562 153.179688 169.242188 153.242188 169.214844 C 153.503906 169.097656 153.804688 169.21875 153.921875 169.480469 C 154.039062 169.742188 153.917969 170.046875 153.660156 170.160156 C 153.503906 170.230469 151.453125 171.113281 148.714844 171.113281 Z M 148.714844 171.113281 " fill-opacity="1" fill-rule="nonzero"/><path fill="#000000" d="M 154.824219 143.449219 C 154.824219 143.449219 154.039062 145.816406 156.984375 146.300781 C 159.222656 146.667969 160.644531 146.867188 161.894531 147.410156 C 162.605469 147.714844 163.433594 147.464844 163.859375 146.820312 C 164.199219 146.300781 164.210938 145.625 163.867188 145.105469 C 163.175781 144.046875 161.695312 142.40625 158.976562 141.921875 C 155.488281 141.296875 154.824219 143.449219 154.824219 143.449219 Z M 154.824219 143.449219 " fill-opacity="1" fill-rule="nonzero"/><path fill="#000000" d="M 144.507812 143.550781 C 144.507812 143.550781 145.410156 145.933594 141.609375 146.351562 C 138.722656 146.664062 135.277344 147.753906 133.644531 148.265625 C 132.71875 148.558594 131.667969 148.289062 131.15625 147.632812 C 130.742188 147.101562 130.757812 146.429688 131.21875 145.914062 C 132.15625 144.875 135.746094 142.347656 139.25 141.925781 C 143.75 141.382812 144.507812 143.550781 144.507812 143.550781 Z M 144.507812 143.550781 " fill-opacity="1" fill-rule="nonzero"/><path fill="#000000" d="M 147.375 123.5 C 147.375 123.5 150.832031 142.203125 105.675781 139.6875 C 105.679688 139.6875 103.042969 113.550781 147.375 123.5 Z M 147.375 123.5 " fill-opacity="1" fill-rule="nonzero"/><path fill="#000000" d="M 119.6875 135.863281 L 117.152344 163.082031 L 95.820312 144.960938 Z M 119.6875 135.863281 " fill-opacity="1" fill-rule="nonzero"/><path fill="#ffad65" d="M 100.4375 167.15625 C 102.210938 172.320312 107.839844 175.070312 113.007812 173.296875 C 118.171875 171.523438 120.921875 165.894531 119.148438 160.730469 C 117.375 155.566406 111.746094 152.816406 106.582031 154.589844 C 101.414062 156.363281 98.664062 161.992188 100.4375 167.15625 Z M 100.4375 167.15625 " fill-opacity="1" fill-rule="nonzero"/><path fill="#000000" d="M 113.460938 166.609375 C 113.222656 166.609375 113.007812 166.445312 112.953125 166.203125 C 112.496094 164.113281 111.574219 162.675781 110.210938 161.933594 C 108.046875 160.753906 105.4375 161.695312 105.410156 161.703125 C 105.140625 161.804688 104.84375 161.667969 104.746094 161.398438 C 104.644531 161.132812 104.78125 160.835938 105.046875 160.734375 C 105.167969 160.6875 108.113281 159.609375 110.699219 161.019531 C 112.339844 161.910156 113.4375 163.582031 113.964844 165.980469 C 114.027344 166.257812 113.851562 166.535156 113.570312 166.597656 C 113.535156 166.605469 113.496094 166.609375 113.460938 166.609375 Z M 113.460938 166.609375 " fill-opacity="1" fill-rule="nonzero"/><path fill="#ffffff" d="M 132.238281 213.855469 L 114.851562 202.136719 L 115.027344 195.589844 L 112.027344 195.589844 C 110.785156 195.589844 109.597656 196.105469 108.71875 197.019531 L 103.269531 202.710938 L 115.789062 222.34375 C 117.097656 224.398438 119.824219 224.804688 121.628906 223.214844 Z M 132.238281 213.855469 " fill-opacity="1" fill-rule="nonzero"/><path fill="#ffffff" d="M 137.691406 195.589844 L 139.949219 195.589844 C 141.511719 195.589844 142.96875 196.40625 143.839844 197.765625 L 147.605469 203.652344 L 145.964844 220.667969 C 145.800781 222.398438 143.878906 223.261719 142.5625 222.199219 L 132.238281 213.855469 L 138.054688 203.675781 Z M 137.691406 195.589844 " fill-opacity="1" fill-rule="nonzero"/><path fill="#ffffff" d="M 134.039062 221.964844 C 134.039062 223.003906 133.230469 223.847656 132.238281 223.847656 C 131.246094 223.847656 130.441406 223.003906 130.441406 221.964844 C 130.441406 220.925781 131.246094 220.082031 132.238281 220.082031 C 133.230469 220.082031 134.039062 220.925781 134.039062 221.964844 Z M 134.039062 221.964844 " fill-opacity="1" fill-rule="nonzero"/><path fill="#ffffff" d="M 134.4375 229.46875 C 134.4375 230.507812 133.632812 231.351562 132.640625 231.351562 C 131.644531 231.351562 130.839844 230.507812 130.839844 229.46875 C 130.839844 228.429688 131.644531 227.585938 132.640625 227.585938 C 133.632812 227.585938 134.4375 228.425781 134.4375 229.46875 Z M 134.4375 229.46875 " fill-opacity="1" fill-rule="nonzero"/><g clip-path="url(#f974626f86)"><path fill="#ffffff" d="M 404.902344 553.660156 L 380.898438 707.621094 L 365.105469 707.621094 L 385.003906 551.421875 Z M 404.902344 553.660156 " fill-opacity="1" fill-rule="nonzero"/></g><g clip-path="url(#060f33c668)"><path fill="#ffffff" d="M 491.136719 551.421875 L 509.492188 707.621094 L 527.808594 707.621094 L 513.175781 551.421875 Z M 491.136719 551.421875 " fill-opacity="1" fill-rule="nonzero"/></g><g clip-path="url(#f96bcfc2c8)"><path fill="#ffffff" d="M 549.917969 553.660156 L 573.921875 707.621094 L 589.714844 707.621094 L 569.816406 551.421875 Z M 549.917969 553.660156 " fill-opacity="1" fill-rule="nonzero"/></g><g clip-path="url(#47e831d67f)"><path fill="#ffffff" d="M 404.902344 553.660156 L 380.898438 707.621094 L 365.105469 707.621094 L 385.003906 551.421875 Z M 404.902344 553.660156 " fill-opacity="1" fill-rule="nonzero"/></g><g clip-path="url(#bb12349f74)"><path fill="#ffffff" d="M 491.136719 551.421875 L 509.492188 707.621094 L 527.808594 707.621094 L 513.175781 551.421875 Z M 491.136719 551.421875 " fill-opacity="1" fill-rule="nonzero"/></g><g clip-path="url(#d17f5e98f2)"><path fill="#ffffff" d="M 549.917969 553.660156 L 573.921875 707.621094 L 589.714844 707.621094 L 569.816406 551.421875 Z M 549.917969 553.660156 " fill-opacity="1" fill-rule="nonzero"/></g><g clip-path="url(#9aefb0857c)"><g mask="url(#6b86562735)"><g transform="matrix(1, 0, 0, 1, 363, 549)"><g clip-path="url(#9a86c139ba)"><g clip-path="url(#1ef3b54fa0)"><path fill="#000000" d="M 41.902344 4.660156 L 17.898438 158.621094 L 2.105469 158.621094 L 22.003906 2.421875 Z M 41.902344 4.660156 " fill-opacity="1" fill-rule="nonzero"/></g><g clip-path="url(#34993e3583)"><path fill="#000000" d="M 128.136719 2.421875 L 146.492188 158.621094 L 164.808594 158.621094 L 150.175781 2.421875 Z M 128.136719 2.421875 " fill-opacity="1" fill-rule="nonzero"/></g><g clip-path="url(#903756f313)"><path fill="#000000" d="M 186.917969 4.660156 L 210.921875 158.621094 L 226.714844 158.621094 L 206.816406 2.421875 Z M 186.917969 4.660156 " fill-opacity="1" fill-rule="nonzero"/></g></g></g></g></g><path fill="#ffffff" d="M 373.8125 696.09375 L 385.003906 691.914062 L 415.386719 692.347656 L 421.738281 694.664062 L 411.402344 698.269531 L 377.992188 698.269531 Z M 373.8125 696.09375 " fill-opacity="1" fill-rule="nonzero"/><path fill="#ffffff" d="M 458.820312 655.871094 L 425.59375 669.042969 L 390.996094 684.894531 L 393.46875 691.484375 L 431.164062 671.40625 L 458.332031 657.339844 Z M 458.820312 655.871094 " fill-opacity="1" fill-rule="nonzero"/><path fill="#ffffff" d="M 434.292969 619.40625 L 447.535156 647.707031 L 433.367188 655.441406 L 417.480469 627.785156 Z M 434.292969 619.40625 " fill-opacity="1" fill-rule="nonzero"/><path fill="#000000" d="M 445.035156 641.691406 C 445.035156 641.691406 437.664062 653.53125 427.75 646.625 L 399.796875 685.746094 L 458.820312 655.871094 Z M 445.035156 641.691406 " fill-opacity="1" fill-rule="nonzero"/><g clip-path="url(#03b2659858)"><g clip-path="url(#8b348338f7)"><path fill="#ffffff" d="M 400.570312 670.347656 C 400.570312 670.347656 416.273438 665.25 424.210938 683.980469 L 395.460938 689.660156 Z M 400.570312 670.347656 " fill-opacity="1" fill-rule="nonzero"/></g></g><path fill="#ffffff" d="M 399.769531 685.746094 L 458.792969 655.875 L 461.402344 661.035156 L 402.382812 690.90625 Z M 399.769531 685.746094 " fill-opacity="1" fill-rule="nonzero"/><path fill="#ffffff" d="M 428.164062 658.738281 C 427.972656 658.753906 427.777344 658.71875 427.601562 658.628906 C 423.796875 656.761719 420.746094 656.425781 420.714844 656.421875 C 420.113281 656.359375 419.699219 655.835938 419.785156 655.25 C 419.875 654.664062 420.441406 654.246094 421.03125 654.300781 C 421.167969 654.3125 424.480469 654.667969 428.65625 656.71875 C 429.1875 656.980469 429.382812 657.621094 429.09375 658.148438 C 428.898438 658.496094 428.542969 658.710938 428.164062 658.738281 Z M 428.164062 658.738281 " fill-opacity="1" fill-rule="nonzero"/><path fill="#ffffff" d="M 424.535156 663.570312 C 424.34375 663.585938 424.148438 663.550781 423.96875 663.464844 C 420.164062 661.59375 417.113281 661.261719 417.082031 661.257812 C 416.484375 661.195312 416.066406 660.667969 416.15625 660.082031 C 416.242188 659.496094 416.8125 659.074219 417.398438 659.132812 C 417.539062 659.144531 420.847656 659.503906 425.027344 661.550781 C 425.558594 661.8125 425.753906 662.453125 425.464844 662.980469 C 425.269531 663.328125 424.910156 663.542969 424.535156 663.570312 Z M 424.535156 663.570312 " fill-opacity="1" fill-rule="nonzero"/><path fill="#ffffff" d="M 420.90625 668.398438 C 420.714844 668.414062 420.519531 668.378906 420.339844 668.292969 C 416.535156 666.425781 413.484375 666.089844 413.453125 666.085938 C 412.851562 666.023438 412.4375 665.5 412.523438 664.914062 C 412.613281 664.328125 413.183594 663.902344 413.769531 663.964844 C 413.910156 663.976562 417.21875 664.332031 421.394531 666.378906 C 421.925781 666.640625 422.125 667.28125 421.832031 667.808594 C 421.636719 668.160156 421.277344 668.371094 420.90625 668.398438 Z M 420.90625 668.398438 " fill-opacity="1" fill-rule="nonzero"/><path fill="#ffffff" d="M 415.386719 651.179688 L 415.089844 682.425781 L 398.972656 683.273438 L 396.601562 651.472656 Z M 415.386719 651.179688 " fill-opacity="1" fill-rule="nonzero"/><path fill="#000000" d="M 415.4375 675.917969 C 415.4375 675.917969 403.675781 683.410156 397.71875 672.894531 L 355.597656 696.089844 L 421.734375 694.660156 Z M 415.4375 675.917969 " fill-opacity="1" fill-rule="nonzero"/><g clip-path="url(#1929556fbd)"><g clip-path="url(#a36cd73851)"><path fill="#ffffff" d="M 362.957031 682.542969 C 362.957031 682.542969 379.320312 684.730469 378.378906 705.050781 L 350.003906 697.746094 Z M 362.957031 682.542969 " fill-opacity="1" fill-rule="nonzero"/></g></g><path fill="#ffffff" d="M 355.617188 696.105469 L 421.757812 694.675781 L 421.882812 700.457031 L 355.742188 701.886719 Z M 355.617188 696.105469 " fill-opacity="1" fill-rule="nonzero"/><path fill="#ffffff" d="M 392.859375 684 C 392.679688 683.933594 392.519531 683.816406 392.394531 683.660156 C 389.769531 680.332031 387.164062 678.707031 387.140625 678.691406 C 386.625 678.375 386.476562 677.722656 386.808594 677.234375 C 387.140625 676.742188 387.835938 676.613281 388.339844 676.917969 C 388.460938 676.988281 391.292969 678.738281 394.171875 682.390625 C 394.539062 682.859375 394.4375 683.519531 393.949219 683.871094 C 393.621094 684.101562 393.207031 684.136719 392.859375 684 Z M 392.859375 684 " fill-opacity="1" fill-rule="nonzero"/><path fill="#ffffff" d="M 387.496094 686.789062 C 387.316406 686.71875 387.15625 686.605469 387.03125 686.445312 C 384.40625 683.117188 381.800781 681.496094 381.777344 681.480469 C 381.261719 681.164062 381.113281 680.507812 381.445312 680.019531 C 381.777344 679.53125 382.476562 679.394531 382.976562 679.703125 C 383.101562 679.773438 385.929688 681.527344 388.808594 685.179688 C 389.175781 685.644531 389.074219 686.308594 388.585938 686.660156 C 388.257812 686.886719 387.84375 686.925781 387.496094 686.789062 Z M 387.496094 686.789062 " fill-opacity="1" fill-rule="nonzero"/><path fill="#ffffff" d="M 382.132812 689.574219 C 381.953125 689.507812 381.792969 689.390625 381.667969 689.234375 C 379.042969 685.90625 376.4375 684.285156 376.410156 684.265625 C 375.898438 683.949219 375.746094 683.296875 376.082031 682.804688 C 376.414062 682.316406 377.109375 682.179688 377.613281 682.488281 C 377.734375 682.558594 380.5625 684.3125 383.445312 687.960938 C 383.8125 688.429688 383.710938 689.089844 383.21875 689.441406 C 382.898438 689.675781 382.480469 689.710938 382.132812 689.574219 Z M 382.132812 689.574219 " fill-opacity="1" fill-rule="nonzero"/><path fill="#ffad65" d="M 457.261719 466.394531 C 457.242188 467.457031 457.222656 468.515625 457.203125 469.574219 C 456.820312 486.21875 454.84375 502.683594 453.503906 519.292969 C 452.007812 528.902344 448.039062 531.890625 444.894531 532.703125 C 444.71875 533.003906 444.53125 533.285156 444.335938 533.566406 L 437.433594 543.320312 C 436.894531 544.328125 435.59375 544.769531 434.441406 544.292969 C 433.617188 543.957031 432.675781 543.144531 433.617188 540.898438 L 432.660156 543.125 C 432.101562 544.203125 430.703125 544.644531 429.492188 544.117188 C 428.398438 543.675781 427.980469 542.3125 428.4375 540.847656 L 427.539062 542.417969 C 426.925781 543.582031 425.351562 544.027344 424.046875 543.320312 C 422.9375 542.703125 422.554688 541.375 423.011719 540.296875 L 424.011719 538.019531 L 424.105469 537.804688 L 422.265625 540.175781 C 421.535156 541.375 419.832031 541.761719 418.488281 540.949219 C 417.335938 540.28125 416.953125 538.882812 417.453125 537.734375 L 423.589844 523.671875 L 420.367188 522.1875 C 419.179688 521.65625 418.507812 520.457031 418.71875 519.289062 C 418.929688 518.070312 420.042969 517.1875 421.363281 517.152344 L 439.695312 516.816406 C 435.035156 482.292969 431.046875 447.839844 427.75 413.195312 C 427.671875 405.316406 434.769531 398.8125 443.1875 398.8125 C 443.476562 398.8125 443.761719 398.8125 444.070312 398.832031 C 451.949219 399.253906 451.976562 407.46875 453.558594 414.625 C 457.210938 431.179688 457.433594 448.460938 457.261719 466.394531 Z M 457.261719 466.394531 " fill-opacity="1" fill-rule="nonzero"/><path fill="#000000" d="M 423.761719 538.816406 C 423.722656 538.816406 423.683594 538.804688 423.644531 538.789062 C 423.507812 538.722656 423.449219 538.558594 423.515625 538.421875 L 427.359375 530.332031 C 427.425781 530.195312 427.585938 530.136719 427.726562 530.203125 C 427.863281 530.269531 427.921875 530.429688 427.855469 530.570312 L 424.011719 538.65625 C 423.964844 538.757812 423.867188 538.816406 423.761719 538.816406 Z M 423.761719 538.816406 " fill-opacity="1" fill-rule="nonzero"/><path fill="#000000" d="M 428.609375 540.785156 C 428.566406 540.785156 428.523438 540.773438 428.480469 540.753906 C 428.34375 540.679688 428.292969 540.515625 428.367188 540.378906 L 432.382812 532.917969 C 432.453125 532.785156 432.621094 532.738281 432.753906 532.804688 C 432.886719 532.878906 432.9375 533.042969 432.863281 533.179688 L 428.851562 540.640625 C 428.800781 540.730469 428.707031 540.785156 428.609375 540.785156 Z M 428.609375 540.785156 " fill-opacity="1" fill-rule="nonzero"/><path fill="#000000" d="M 433.253906 541.820312 C 433.207031 541.820312 433.164062 541.808594 433.121094 541.785156 C 432.988281 541.710938 432.941406 541.542969 433.015625 541.410156 L 436.523438 535.203125 C 436.597656 535.070312 436.765625 535.023438 436.894531 535.097656 C 437.03125 535.171875 437.074219 535.339844 437 535.472656 L 433.496094 541.679688 C 433.441406 541.769531 433.351562 541.820312 433.253906 541.820312 Z M 433.253906 541.820312 " fill-opacity="1" fill-rule="nonzero"/><path fill="#f89a00" d="M 525.886719 482.542969 L 525.886719 516.804688 C 525.886719 532.359375 512.972656 544.792969 497.433594 544.214844 L 439.433594 542.09375 L 432.238281 597.375 L 444.167969 633.621094 L 426.773438 639.367188 L 423.527344 664.347656 L 391.027344 661.875 L 390.453125 591.222656 L 370.417969 550.355469 C 364.246094 537.78125 369.898438 522.847656 383.089844 516.820312 L 396.804688 510.570312 C 402.511719 503.332031 410.898438 498.359375 420.425781 497.054688 Z M 525.886719 482.542969 " fill-opacity="1" fill-rule="nonzero"/><path fill="#3f2952" d="M 449.246094 373.558594 C 449.246094 373.558594 428.480469 385.929688 424.449219 419.441406 L 454.09375 435.726562 Z M 449.246094 373.558594 " fill-opacity="1" fill-rule="nonzero"/><path fill="#3f2952" d="M 488.90625 363.09375 C 499.128906 363.964844 509.207031 366.207031 518.730469 370.015625 C 522.417969 371.488281 526.542969 373.289062 528.792969 376.746094 C 531.8125 381.382812 529.464844 386.617188 529.273438 391.65625 C 529.273438 391.660156 526.453125 494.957031 526.453125 494.957031 L 441.773438 494.957031 L 438.71875 395.058594 C 437.988281 384.410156 444.292969 374.621094 454.035156 371.1875 C 464.953125 367.339844 478.277344 363.027344 484.085938 362.679688 Z M 488.90625 363.09375 " fill-opacity="1" fill-rule="nonzero"/><path fill="#000000" d="M 440.398438 429.59375 C 440.140625 429.59375 439.925781 429.386719 439.917969 429.128906 L 439.152344 398.8125 C 439.144531 398.546875 439.359375 398.328125 439.621094 398.320312 C 439.875 398.339844 440.109375 398.523438 440.113281 398.789062 L 440.878906 429.101562 C 440.886719 429.367188 440.675781 429.589844 440.410156 429.59375 C 440.410156 429.59375 440.402344 429.59375 440.398438 429.59375 Z M 440.398438 429.59375 " fill-opacity="1" fill-rule="nonzero"/><path fill="#ffad65" d="M 458.945312 369.488281 C 458.945312 369.488281 474.289062 363.480469 484.085938 362.679688 C 484.085938 362.679688 497.464844 363.25 506.664062 366.082031 C 506.664062 366.082031 501.5625 376.96875 478.074219 378.753906 C 454.582031 380.539062 458.945312 369.488281 458.945312 369.488281 Z M 458.945312 369.488281 " fill-opacity="1" fill-rule="nonzero"/><path fill="#3f2952" d="M 524.335938 372.660156 C 524.335938 372.660156 547.464844 385.121094 551.242188 433.351562 L 517.292969 444.125 L 505.015625 405.640625 Z M 524.335938 372.660156 " fill-opacity="1" fill-rule="nonzero"/><path fill="#000000" d="M 389.917969 590.640625 C 389.917969 590.640625 389.914062 590.640625 389.914062 590.640625 C 389.625 590.636719 389.394531 590.402344 389.398438 590.113281 C 389.402344 589.828125 389.691406 561.320312 389.375 540.519531 C 389.054688 519.523438 396.078125 510.621094 396.375 510.25 C 396.554688 510.027344 396.882812 509.992188 397.109375 510.175781 C 397.332031 510.355469 397.367188 510.683594 397.1875 510.90625 C 397.117188 510.996094 390.105469 519.929688 390.417969 540.5 C 390.734375 561.316406 390.441406 589.835938 390.441406 590.121094 C 390.441406 590.410156 390.207031 590.640625 389.917969 590.640625 Z M 389.917969 590.640625 " fill-opacity="1" fill-rule="nonzero"/><path fill="#000000" d="M 426.785156 639.882812 C 426.761719 639.882812 426.742188 639.882812 426.714844 639.878906 C 426.429688 639.84375 426.230469 639.582031 426.265625 639.292969 L 431.597656 598.292969 C 431.636719 598.007812 431.882812 597.808594 432.183594 597.84375 C 432.46875 597.878906 432.671875 598.140625 432.632812 598.429688 L 427.300781 639.429688 C 427.265625 639.695312 427.042969 639.882812 426.785156 639.882812 Z M 426.785156 639.882812 " fill-opacity="1" fill-rule="nonzero"/><path fill="#000000" d="M 518.234375 444.347656 C 517.972656 444.347656 517.75 444.148438 517.714844 443.886719 L 513.230469 404.699219 C 513.199219 404.414062 513.402344 404.15625 513.691406 404.121094 C 513.964844 404.085938 514.234375 404.296875 514.269531 404.582031 L 518.753906 443.765625 C 518.785156 444.050781 518.582031 444.3125 518.292969 444.34375 C 518.273438 444.347656 518.253906 444.347656 518.234375 444.347656 Z M 518.234375 444.347656 " fill-opacity="1" fill-rule="nonzero"/><path fill="#ffffff" d="M 355.601562 696.09375 L 367.046875 694.035156 L 377.363281 695.625 L 371.074219 697.820312 L 359.476562 697.820312 Z M 355.601562 696.09375 " fill-opacity="1" fill-rule="nonzero"/><path fill="#ffffff" d="M 289.199219 465.765625 L 576.074219 465.765625 L 576.074219 477.53125 L 289.199219 477.53125 Z M 289.199219 465.765625 " fill-opacity="1" fill-rule="nonzero"/><path fill="#000000" d="M 289.199219 465.765625 L 576.074219 465.765625 L 576.074219 477.53125 L 289.199219 477.53125 Z M 289.199219 465.765625 " fill-opacity="0.27" fill-rule="nonzero"/><path fill="#ffad65" d="M 474.199219 466.179688 L 541.976562 465.867188 C 547.351562 465.796875 552.78125 458.964844 552.632812 453.59375 C 552.464844 447.617188 546.234375 441.347656 540.375 442.535156 L 474.082031 455.785156 Z M 474.199219 466.179688 " fill-opacity="1" fill-rule="nonzero"/><path fill="#ffad65" d="M 477.785156 455.457031 C 477.785156 455.457031 448.046875 448.34375 448.046875 466.179688 L 474.203125 466.179688 Z M 477.785156 455.457031 " fill-opacity="1" fill-rule="nonzero"/><path fill="#000000" d="M 518.296875 315.046875 C 518.296875 315.046875 556.789062 305.285156 539.308594 346.253906 C 536.277344 353.367188 534.492188 359.152344 533.585938 363.859375 C 531.1875 376.308594 512.660156 375.21875 511.984375 362.558594 C 511.660156 356.492188 513.371094 348.734375 518.261719 338.824219 C 518.261719 338.824219 526.144531 324.386719 517 321.050781 Z M 518.296875 315.046875 " fill-opacity="1" fill-rule="nonzero"/><path fill="#f89a00" d="M 521.527344 317.421875 C 521.527344 317.894531 521.480469 318.367188 521.386719 318.832031 C 521.296875 319.296875 521.160156 319.75 520.976562 320.191406 C 520.792969 320.628906 520.570312 321.046875 520.308594 321.441406 C 520.042969 321.835938 519.742188 322.203125 519.40625 322.539062 C 519.070312 322.875 518.707031 323.175781 518.308594 323.4375 C 517.914062 323.703125 517.496094 323.925781 517.058594 324.109375 C 516.621094 324.289062 516.167969 324.425781 515.699219 324.519531 C 515.234375 324.613281 514.761719 324.660156 514.289062 324.660156 C 513.8125 324.660156 513.34375 324.613281 512.875 324.519531 C 512.410156 324.425781 511.957031 324.289062 511.519531 324.109375 C 511.078125 323.925781 510.660156 323.703125 510.265625 323.4375 C 509.871094 323.175781 509.503906 322.875 509.167969 322.539062 C 508.832031 322.203125 508.53125 321.835938 508.269531 321.441406 C 508.003906 321.046875 507.78125 320.628906 507.601562 320.191406 C 507.417969 319.75 507.28125 319.296875 507.1875 318.832031 C 507.09375 318.367188 507.046875 317.894531 507.046875 317.421875 C 507.046875 316.945312 507.09375 316.472656 507.1875 316.007812 C 507.28125 315.542969 507.417969 315.089844 507.601562 314.648438 C 507.78125 314.210938 508.003906 313.792969 508.269531 313.398438 C 508.53125 313.003906 508.832031 312.636719 509.167969 312.300781 C 509.503906 311.964844 509.871094 311.664062 510.265625 311.402344 C 510.660156 311.136719 511.078125 310.914062 511.519531 310.734375 C 511.957031 310.550781 512.410156 310.414062 512.875 310.320312 C 513.34375 310.226562 513.8125 310.183594 514.289062 310.183594 C 514.761719 310.183594 515.234375 310.226562 515.699219 310.320312 C 516.167969 310.414062 516.621094 310.550781 517.058594 310.734375 C 517.496094 310.914062 517.914062 311.136719 518.308594 311.402344 C 518.707031 311.664062 519.070312 311.964844 519.40625 312.300781 C 519.742188 312.636719 520.042969 313.003906 520.308594 313.398438 C 520.570312 313.792969 520.792969 314.210938 520.976562 314.648438 C 521.160156 315.089844 521.296875 315.542969 521.386719 316.007812 C 521.480469 316.472656 521.527344 316.945312 521.527344 317.421875 Z M 521.527344 317.421875 " fill-opacity="1" fill-rule="nonzero"/><path fill="#000000" d="M 492.730469 289.03125 C 492.730469 289.03125 474.882812 279.304688 463.875 285.519531 C 447.757812 294.625 462.523438 307.300781 462.523438 307.300781 Z M 492.730469 289.03125 " fill-opacity="1" fill-rule="nonzero"/><path fill="#000000" d="M 493.804688 289.289062 C 494.75 289.527344 495.683594 289.8125 496.601562 290.140625 C 497.519531 290.464844 498.417969 290.835938 499.300781 291.246094 C 500.183594 291.660156 501.042969 292.109375 501.878906 292.601562 C 502.71875 293.09375 503.53125 293.625 504.316406 294.191406 C 505.101562 294.757812 505.855469 295.359375 506.582031 295.996094 C 507.308594 296.632812 508 297.304688 508.65625 298.003906 C 509.316406 298.703125 509.9375 299.433594 510.523438 300.191406 C 511.109375 300.949219 511.65625 301.734375 512.160156 302.539062 C 512.667969 303.347656 513.132812 304.175781 513.554688 305.027344 C 513.976562 305.875 514.355469 306.742188 514.6875 307.625 C 515.023438 308.507812 515.3125 309.40625 515.554688 310.3125 C 515.796875 311.222656 515.996094 312.140625 516.144531 313.066406 C 516.292969 313.992188 516.398438 314.917969 516.453125 315.851562 C 516.507812 316.785156 516.515625 317.71875 516.472656 318.648438 C 516.433594 319.582031 516.34375 320.507812 516.210938 321.425781 C 516.074219 322.347656 515.890625 323.261719 515.664062 324.164062 C 515.433594 325.0625 515.15625 325.953125 514.835938 326.824219 C 514.515625 327.699219 514.152344 328.554688 513.742188 329.394531 C 513.332031 330.230469 512.878906 331.046875 512.386719 331.839844 C 511.894531 332.632812 511.359375 333.402344 510.785156 334.140625 C 510.210938 334.882812 509.601562 335.59375 508.953125 336.277344 C 508.304688 336.960938 507.625 337.609375 506.910156 338.226562 C 506.191406 338.84375 505.445312 339.421875 504.667969 339.96875 C 503.890625 340.511719 503.089844 341.019531 502.257812 341.488281 C 501.425781 341.953125 500.574219 342.382812 499.699219 342.769531 C 498.820312 343.15625 497.925781 343.5 497.015625 343.800781 C 496.101562 344.101562 495.171875 344.359375 494.230469 344.570312 C 493.289062 344.785156 492.339844 344.953125 491.378906 345.078125 C 490.417969 345.199219 489.449219 345.277344 488.480469 345.308594 C 487.507812 345.339844 486.535156 345.328125 485.566406 345.265625 C 484.59375 345.207031 483.625 345.101562 482.664062 344.953125 C 481.699219 344.800781 480.746094 344.605469 479.800781 344.367188 C 478.855469 344.125 477.921875 343.839844 477.003906 343.511719 C 476.085938 343.1875 475.1875 342.816406 474.304688 342.40625 C 473.421875 341.992188 472.5625 341.542969 471.726562 341.050781 C 470.886719 340.558594 470.074219 340.027344 469.289062 339.460938 C 468.503906 338.894531 467.75 338.292969 467.023438 337.65625 C 466.296875 337.019531 465.605469 336.347656 464.945312 335.648438 C 464.289062 334.949219 463.667969 334.21875 463.082031 333.460938 C 462.496094 332.703125 461.949219 331.917969 461.445312 331.113281 C 460.9375 330.304688 460.472656 329.476562 460.050781 328.625 C 459.628906 327.777344 459.25 326.910156 458.917969 326.027344 C 458.582031 325.144531 458.292969 324.246094 458.050781 323.339844 C 457.808594 322.429688 457.609375 321.511719 457.460938 320.585938 C 457.3125 319.664062 457.207031 318.734375 457.152344 317.800781 C 457.097656 316.867188 457.089844 315.933594 457.132812 315.003906 C 457.171875 314.074219 457.261719 313.144531 457.394531 312.226562 C 457.53125 311.304688 457.714844 310.390625 457.941406 309.492188 C 458.171875 308.589844 458.449219 307.699219 458.769531 306.828125 C 459.089844 305.953125 459.453125 305.097656 459.863281 304.257812 C 460.273438 303.421875 460.726562 302.605469 461.21875 301.8125 C 461.710938 301.019531 462.246094 300.25 462.820312 299.511719 C 463.394531 298.769531 464.003906 298.058594 464.652344 297.375 C 465.300781 296.691406 465.980469 296.042969 466.695312 295.425781 C 467.414062 294.808594 468.160156 294.230469 468.9375 293.683594 C 469.714844 293.140625 470.515625 292.632812 471.347656 292.167969 C 472.175781 291.699219 473.03125 291.269531 473.90625 290.882812 C 474.785156 290.5 475.679688 290.152344 476.589844 289.851562 C 477.503906 289.550781 478.433594 289.292969 479.375 289.082031 C 480.316406 288.867188 481.265625 288.699219 482.226562 288.578125 C 483.1875 288.453125 484.15625 288.375 485.125 288.34375 C 486.097656 288.3125 487.066406 288.324219 488.039062 288.386719 C 489.011719 288.445312 489.980469 288.550781 490.941406 288.699219 C 491.90625 288.851562 492.859375 289.046875 493.804688 289.289062 Z M 493.804688 289.289062 " fill-opacity="1" fill-rule="nonzero"/><path fill="#ffad65" d="M 471.503906 343.675781 L 471.03125 373.054688 L 492.824219 372.609375 L 489.828125 328.046875 Z M 471.503906 343.675781 " fill-opacity="1" fill-rule="nonzero"/><path fill="#000000" d="M 471.257812 359.167969 L 487.566406 341.726562 L 471.503906 343.675781 Z M 471.257812 359.167969 " fill-opacity="1" fill-rule="nonzero"/><path fill="#ffad65" d="M 465.554688 294.289062 C 463.417969 295.355469 461.777344 297.191406 460.75 299.34375 C 457.523438 306.101562 451.433594 318.078125 452.039062 326.355469 C 452.820312 337.054688 459.050781 346.082031 472.621094 346.910156 C 472.621094 346.910156 488.527344 349.289062 496.710938 330.457031 C 509.8125 300.308594 485.199219 284.464844 465.554688 294.289062 Z M 465.554688 294.289062 " fill-opacity="1" fill-rule="nonzero"/><path fill="#000000" d="M 461.890625 325.5625 C 461.828125 325.5625 461.761719 325.546875 461.699219 325.519531 L 459.941406 324.707031 C 459.320312 324.359375 459.09375 323.621094 459.398438 323.015625 L 461.445312 320.019531 C 461.589844 319.808594 461.875 319.757812 462.089844 319.902344 C 462.300781 320.046875 462.355469 320.335938 462.207031 320.542969 L 460.191406 323.484375 C 460.140625 323.59375 460.199219 323.796875 460.363281 323.886719 L 462.082031 324.675781 C 462.316406 324.785156 462.417969 325.058594 462.308594 325.289062 C 462.234375 325.460938 462.066406 325.5625 461.890625 325.5625 Z M 461.890625 325.5625 " fill-opacity="1" fill-rule="nonzero"/><path fill="#000000" d="M 474.46875 319.152344 C 474.46875 319.402344 474.421875 319.640625 474.328125 319.871094 C 474.230469 320.101562 474.09375 320.304688 473.917969 320.480469 C 473.742188 320.65625 473.539062 320.792969 473.308594 320.890625 C 473.078125 320.984375 472.839844 321.03125 472.589844 321.03125 C 472.339844 321.03125 472.101562 320.984375 471.871094 320.890625 C 471.640625 320.792969 471.4375 320.65625 471.261719 320.480469 C 471.085938 320.304688 470.949219 320.101562 470.851562 319.871094 C 470.757812 319.640625 470.710938 319.402344 470.710938 319.152344 C 470.710938 318.902344 470.757812 318.664062 470.851562 318.433594 C 470.949219 318.203125 471.085938 318 471.261719 317.824219 C 471.4375 317.648438 471.640625 317.511719 471.871094 317.417969 C 472.101562 317.320312 472.339844 317.273438 472.589844 317.273438 C 472.839844 317.273438 473.078125 317.320312 473.308594 317.417969 C 473.539062 317.511719 473.742188 317.648438 473.917969 317.824219 C 474.09375 318 474.230469 318.203125 474.328125 318.433594 C 474.421875 318.664062 474.46875 318.902344 474.46875 319.152344 Z M 474.46875 319.152344 " fill-opacity="1" fill-rule="nonzero"/><path fill="#000000" d="M 459.839844 315.742188 C 459.636719 316.683594 458.707031 317.28125 457.765625 317.078125 C 456.824219 316.875 456.226562 315.949219 456.429688 315.007812 C 456.632812 314.066406 457.558594 313.46875 458.5 313.671875 C 459.441406 313.871094 460.042969 314.800781 459.839844 315.742188 Z M 459.839844 315.742188 " fill-opacity="1" fill-rule="nonzero"/><path fill="#000000" d="M 465.234375 331.410156 C 461.671875 331.410156 459.011719 329.515625 458.859375 329.402344 C 458.652344 329.253906 458.605469 328.964844 458.753906 328.757812 C 458.902344 328.550781 459.195312 328.503906 459.398438 328.65625 C 459.449219 328.691406 464.296875 332.117188 469.417969 329.445312 C 469.644531 329.328125 469.921875 329.414062 470.039062 329.640625 C 470.15625 329.867188 470.070312 330.148438 469.84375 330.265625 C 468.230469 331.105469 466.660156 331.410156 465.234375 331.410156 Z M 465.234375 331.410156 " fill-opacity="1" fill-rule="nonzero"/><path fill="#000000" d="M 462.867188 305.863281 C 462.867188 305.863281 463.109375 308.074219 460.445312 307.945312 C 458.421875 307.84375 457.144531 307.75 455.949219 307.988281 C 455.273438 308.121094 454.59375 307.746094 454.347656 307.105469 C 454.144531 306.585938 454.261719 305.996094 454.660156 305.601562 C 455.464844 304.808594 457.066406 303.65625 459.53125 303.746094 C 462.691406 303.859375 462.867188 305.863281 462.867188 305.863281 Z M 462.867188 305.863281 " fill-opacity="1" fill-rule="nonzero"/><path fill="#000000" d="M 471.855469 307.890625 C 471.855469 307.890625 470.621094 309.804688 473.859375 310.882812 C 476.320312 311.699219 479.125 313.296875 480.449219 314.054688 C 481.203125 314.480469 482.171875 314.445312 482.742188 313.96875 C 483.207031 313.585938 483.320312 312.992188 483.011719 312.457031 C 482.390625 311.375 479.730469 308.492188 476.75 307.460938 C 472.925781 306.140625 471.855469 307.890625 471.855469 307.890625 Z M 471.855469 307.890625 " fill-opacity="1" fill-rule="nonzero"/><path fill="#000000" d="M 473.128906 289.84375 C 473.128906 289.84375 466.589844 305.523438 506.488281 311.828125 C 506.488281 311.828125 513.710938 289.503906 473.128906 289.84375 Z M 473.128906 289.84375 " fill-opacity="1" fill-rule="nonzero"/><path fill="#000000" d="M 494.972656 305.851562 L 492.0625 330.09375 L 514.101562 318.285156 Z M 494.972656 305.851562 " fill-opacity="1" fill-rule="nonzero"/><path fill="#ffad65" d="M 505.890625 336.800781 C 503.367188 340.976562 497.9375 342.316406 493.761719 339.796875 C 489.582031 337.273438 488.242188 331.84375 490.761719 327.667969 C 493.285156 323.488281 498.71875 322.148438 502.894531 324.671875 C 507.070312 327.191406 508.414062 332.621094 505.890625 336.800781 Z M 505.890625 336.800781 " fill-opacity="1" fill-rule="nonzero"/><path fill="#000000" d="M 494.71875 333.878906 C 494.65625 333.878906 494.589844 333.867188 494.527344 333.835938 C 494.296875 333.730469 494.195312 333.457031 494.300781 333.226562 C 495.210938 331.230469 496.488281 329.976562 498.085938 329.507812 C 500.609375 328.769531 502.976562 330.257812 503.074219 330.324219 C 503.289062 330.460938 503.351562 330.746094 503.210938 330.960938 C 503.074219 331.175781 502.789062 331.238281 502.574219 331.101562 C 502.554688 331.089844 500.441406 329.773438 498.339844 330.398438 C 497.011719 330.789062 495.933594 331.871094 495.140625 333.609375 C 495.0625 333.78125 494.894531 333.878906 494.71875 333.878906 Z M 494.71875 333.878906 " fill-opacity="1" fill-rule="nonzero"/><g clip-path="url(#1038424006)"><path fill="#000000" d="M 304.515625 477.53125 L 319.789062 477.53125 L 319.789062 707.621094 L 304.515625 707.621094 Z M 304.515625 477.53125 " fill-opacity="1" fill-rule="nonzero"/></g><g clip-path="url(#bcc4d5df50)"><path fill="#000000" d="M 540.6875 477.53125 L 555.964844 477.53125 L 555.964844 707.621094 L 540.6875 707.621094 Z M 540.6875 477.53125 " fill-opacity="1" fill-rule="nonzero"/></g><path fill="#000000" d="M 241.578125 189.167969 C 241.953125 188.023438 242.308594 186.925781 242.648438 185.871094 C 242.988281 184.816406 243.289062 183.84375 243.550781 182.945312 C 243.8125 182.050781 244.019531 181.257812 244.171875 180.570312 C 244.324219 179.882812 244.410156 179.335938 244.429688 178.925781 C 244.53125 178.535156 244.707031 178.226562 244.957031 177.992188 C 245.210938 177.761719 245.503906 177.644531 245.835938 177.644531 C 246.035156 177.644531 246.203125 177.691406 246.34375 177.78125 C 246.484375 177.871094 246.597656 177.992188 246.6875 178.140625 C 246.773438 178.289062 246.835938 178.457031 246.878906 178.644531 C 246.917969 178.832031 246.941406 179.019531 246.941406 179.210938 C 246.941406 179.351562 246.933594 179.480469 246.914062 179.597656 C 246.898438 179.710938 246.878906 179.824219 246.851562 179.933594 C 246.664062 180.695312 246.433594 181.484375 246.167969 182.296875 C 245.902344 183.109375 245.632812 183.933594 245.355469 184.765625 C 245.074219 185.601562 244.800781 186.4375 244.527344 187.273438 C 244.253906 188.113281 244.007812 188.933594 243.792969 189.738281 L 243.570312 190.585938 C 243.453125 191.015625 243.351562 191.425781 243.269531 191.816406 C 243.1875 192.207031 243.148438 192.519531 243.148438 192.761719 C 243.148438 192.894531 243.171875 193 243.222656 193.078125 C 243.273438 193.15625 243.367188 193.195312 243.507812 193.195312 C 243.847656 193.195312 244.25 193.140625 244.703125 193.027344 C 245.160156 192.914062 245.632812 192.777344 246.121094 192.617188 C 246.613281 192.457031 247.101562 192.277344 247.585938 192.082031 C 248.070312 191.890625 248.515625 191.703125 248.921875 191.53125 C 249.140625 191.4375 249.324219 191.359375 249.476562 191.292969 C 249.628906 191.226562 249.820312 191.148438 250.046875 191.050781 C 250.277344 190.957031 250.582031 190.828125 250.964844 190.671875 C 251.34375 190.515625 251.871094 190.292969 252.542969 190.011719 C 252.660156 189.972656 252.761719 189.933594 252.847656 189.90625 C 252.9375 189.875 253.015625 189.863281 253.089844 189.863281 C 253.222656 189.863281 253.335938 189.886719 253.433594 189.9375 C 253.527344 189.988281 253.601562 190.054688 253.65625 190.136719 C 253.710938 190.21875 253.75 190.316406 253.773438 190.421875 C 253.800781 190.527344 253.8125 190.636719 253.8125 190.746094 C 253.8125 190.929688 253.796875 191.085938 253.765625 191.226562 C 253.738281 191.363281 253.707031 191.476562 253.671875 191.566406 C 253.574219 191.726562 253.445312 191.867188 253.285156 191.996094 C 253.128906 192.125 252.964844 192.238281 252.789062 192.332031 C 252.617188 192.429688 252.445312 192.511719 252.277344 192.578125 C 252.113281 192.644531 251.976562 192.691406 251.867188 192.726562 C 251.734375 192.777344 251.558594 192.84375 251.339844 192.925781 C 251.121094 193.007812 250.878906 193.097656 250.625 193.199219 C 250.367188 193.296875 250.101562 193.398438 249.828125 193.503906 C 249.554688 193.605469 249.296875 193.703125 249.054688 193.796875 C 248.8125 193.886719 248.601562 193.96875 248.414062 194.039062 C 248.226562 194.109375 248.097656 194.15625 248.023438 194.179688 C 247.664062 194.3125 247.269531 194.464844 246.832031 194.628906 C 246.398438 194.792969 245.964844 194.953125 245.53125 195.101562 C 245.101562 195.25 244.691406 195.378906 244.304688 195.480469 C 243.921875 195.585938 243.597656 195.636719 243.339844 195.636719 C 243.027344 195.636719 242.777344 195.613281 242.601562 195.5625 C 242.421875 195.511719 242.261719 195.445312 242.121094 195.355469 C 241.980469 195.269531 241.835938 195.164062 241.691406 195.039062 C 241.546875 194.917969 241.351562 194.777344 241.113281 194.628906 C 240.898438 194.496094 240.742188 194.3125 240.652344 194.082031 C 240.5625 193.847656 240.515625 193.597656 240.515625 193.335938 C 240.515625 193.203125 240.527344 193.046875 240.546875 192.871094 C 240.566406 192.699219 240.59375 192.515625 240.628906 192.324219 C 240.660156 192.132812 240.699219 191.945312 240.738281 191.765625 C 240.78125 191.582031 240.828125 191.421875 240.875 191.277344 Z M 241.578125 189.167969 " fill-opacity="1" fill-rule="nonzero"/><path fill="#000000" d="M 255.15625 190.785156 C 255.15625 190.429688 255.25 190.125 255.441406 189.878906 C 255.632812 189.628906 255.882812 189.464844 256.203125 189.378906 C 256.292969 189.199219 256.433594 188.949219 256.625 188.640625 C 256.816406 188.328125 257.050781 187.988281 257.335938 187.625 C 257.617188 187.261719 257.9375 186.894531 258.300781 186.523438 C 258.660156 186.15625 259.058594 185.820312 259.492188 185.515625 C 259.929688 185.214844 260.398438 184.96875 260.902344 184.777344 C 261.402344 184.585938 261.933594 184.488281 262.5 184.488281 C 262.980469 184.488281 263.398438 184.546875 263.757812 184.664062 C 264.113281 184.78125 264.40625 184.941406 264.640625 185.148438 C 264.871094 185.355469 265.046875 185.601562 265.164062 185.890625 C 265.28125 186.175781 265.335938 186.484375 265.335938 186.816406 C 265.335938 187.101562 265.300781 187.367188 265.222656 187.625 C 265.109375 188.089844 264.894531 188.496094 264.578125 188.84375 C 264.261719 189.195312 263.890625 189.5 263.460938 189.757812 C 263.035156 190.019531 262.570312 190.238281 262.070312 190.414062 C 261.566406 190.585938 261.066406 190.730469 260.5625 190.847656 C 260.0625 190.964844 259.578125 191.054688 259.113281 191.117188 C 258.648438 191.179688 258.246094 191.226562 257.90625 191.257812 C 257.832031 191.40625 257.769531 191.597656 257.714844 191.824219 C 257.664062 192.054688 257.636719 192.277344 257.636719 192.492188 C 257.636719 192.972656 257.824219 193.34375 258.207031 193.613281 C 258.589844 193.875 259.117188 194.007812 259.789062 194.007812 C 260.175781 194.007812 260.550781 193.964844 260.90625 193.878906 C 261.265625 193.789062 261.601562 193.679688 261.921875 193.542969 C 262.238281 193.40625 262.542969 193.253906 262.824219 193.09375 C 263.105469 192.933594 263.363281 192.773438 263.59375 192.613281 C 263.894531 192.414062 264.175781 192.246094 264.445312 192.109375 C 264.71875 191.972656 264.957031 191.90625 265.164062 191.90625 C 265.371094 191.90625 265.503906 191.957031 265.558594 192.0625 C 265.621094 192.164062 265.648438 192.277344 265.648438 192.390625 C 265.648438 192.457031 265.644531 192.519531 265.644531 192.585938 C 265.636719 192.648438 265.632812 192.699219 265.625 192.738281 C 265.582031 192.957031 265.5 193.171875 265.375 193.386719 C 265.25 193.601562 265.089844 193.789062 264.902344 193.949219 C 264.039062 194.628906 263.152344 195.113281 262.246094 195.402344 C 261.335938 195.691406 260.367188 195.839844 259.335938 195.839844 C 259.140625 195.839844 258.90625 195.824219 258.632812 195.800781 C 258.363281 195.777344 258.085938 195.726562 257.792969 195.652344 C 257.503906 195.578125 257.21875 195.46875 256.9375 195.328125 C 256.65625 195.1875 256.402344 195 256.183594 194.769531 C 255.964844 194.535156 255.785156 194.25 255.648438 193.910156 C 255.511719 193.570312 255.445312 193.160156 255.445312 192.679688 C 255.445312 192.289062 255.496094 191.855469 255.605469 191.371094 C 255.496094 191.355469 255.394531 191.300781 255.300781 191.203125 C 255.203125 191.105469 255.15625 190.96875 255.15625 190.785156 Z M 262.945312 187.339844 C 262.964844 187.296875 262.972656 187.261719 262.972656 187.226562 C 262.972656 187.191406 262.972656 187.15625 262.972656 187.113281 C 262.972656 186.890625 262.890625 186.722656 262.722656 186.609375 C 262.558594 186.5 262.359375 186.441406 262.125 186.441406 C 261.761719 186.441406 261.402344 186.539062 261.050781 186.730469 C 260.699219 186.921875 260.367188 187.160156 260.054688 187.445312 C 259.746094 187.730469 259.46875 188.039062 259.230469 188.367188 C 258.988281 188.695312 258.800781 188.988281 258.667969 189.257812 C 259.265625 189.207031 259.8125 189.125 260.3125 189.011719 C 260.808594 188.902344 261.242188 188.761719 261.609375 188.589844 C 261.980469 188.421875 262.277344 188.230469 262.507812 188.019531 C 262.734375 187.808594 262.878906 187.582031 262.945312 187.339844 Z M 262.945312 187.339844 " fill-opacity="1" fill-rule="nonzero"/><path fill="#000000" d="M 268.222656 193.386719 C 268.289062 193.386719 268.351562 193.394531 268.402344 193.414062 C 268.457031 193.429688 268.519531 193.449219 268.582031 193.46875 C 268.648438 193.488281 268.726562 193.507812 268.808594 193.527344 C 268.890625 193.542969 269 193.550781 269.132812 193.550781 C 269.523438 193.550781 269.957031 193.507812 270.433594 193.425781 C 270.910156 193.34375 271.359375 193.234375 271.78125 193.101562 C 272.207031 192.972656 272.570312 192.820312 272.871094 192.648438 C 273.175781 192.480469 273.347656 192.304688 273.390625 192.121094 C 273.414062 192.019531 273.425781 191.933594 273.425781 191.859375 C 273.425781 191.71875 273.359375 191.582031 273.222656 191.453125 C 273.085938 191.324219 272.914062 191.203125 272.703125 191.085938 C 272.496094 190.972656 272.273438 190.863281 272.03125 190.765625 C 271.792969 190.664062 271.566406 190.570312 271.359375 190.488281 L 270.9375 190.316406 C 270.722656 190.234375 270.511719 190.132812 270.300781 190.011719 C 270.09375 189.890625 269.902344 189.753906 269.722656 189.59375 C 269.546875 189.4375 269.386719 189.253906 269.25 189.042969 C 269.117188 188.832031 269.011719 188.585938 268.949219 188.3125 C 268.914062 188.195312 268.886719 188.082031 268.867188 187.964844 C 268.84375 187.847656 268.835938 187.722656 268.835938 187.59375 C 268.835938 187.375 268.90625 187.128906 269.054688 186.851562 C 269.199219 186.570312 269.394531 186.296875 269.636719 186.023438 C 269.882812 185.75 270.160156 185.488281 270.472656 185.238281 C 270.785156 184.992188 271.109375 184.785156 271.449219 184.617188 C 271.699219 184.445312 271.9375 184.289062 272.171875 184.144531 C 272.402344 184.003906 272.640625 183.882812 272.875 183.785156 C 273.109375 183.6875 273.351562 183.609375 273.597656 183.546875 C 273.839844 183.492188 274.101562 183.460938 274.375 183.460938 C 274.621094 183.460938 274.890625 183.472656 275.183594 183.5 C 275.472656 183.523438 275.738281 183.582031 275.980469 183.671875 C 276.21875 183.761719 276.421875 183.898438 276.582031 184.078125 C 276.742188 184.253906 276.824219 184.492188 276.824219 184.792969 C 276.824219 184.882812 276.8125 185.003906 276.785156 185.152344 C 276.761719 185.300781 276.71875 185.453125 276.664062 185.601562 C 276.605469 185.75 276.535156 185.878906 276.453125 185.988281 C 276.371094 186.09375 276.269531 186.148438 276.152344 186.148438 C 275.960938 186.148438 275.804688 186.109375 275.679688 186.035156 C 275.554688 185.960938 275.445312 185.878906 275.34375 185.792969 C 275.242188 185.703125 275.140625 185.625 275.03125 185.546875 C 274.921875 185.472656 274.792969 185.433594 274.632812 185.433594 C 274.441406 185.433594 274.222656 185.472656 273.96875 185.539062 C 273.714844 185.613281 273.457031 185.707031 273.191406 185.828125 C 272.925781 185.945312 272.667969 186.085938 272.414062 186.246094 C 272.160156 186.402344 271.933594 186.5625 271.730469 186.730469 C 271.527344 186.894531 271.363281 187.058594 271.238281 187.222656 C 271.117188 187.382812 271.050781 187.53125 271.050781 187.664062 C 271.050781 187.804688 271.097656 187.921875 271.1875 188.011719 C 271.28125 188.105469 271.394531 188.183594 271.539062 188.25 C 271.71875 188.347656 271.929688 188.449219 272.167969 188.546875 C 272.402344 188.648438 272.640625 188.75 272.882812 188.847656 C 273.121094 188.945312 273.355469 189.046875 273.585938 189.144531 C 273.8125 189.246094 274.011719 189.335938 274.175781 189.417969 C 274.398438 189.535156 274.601562 189.652344 274.78125 189.761719 C 274.957031 189.875 275.109375 189.996094 275.234375 190.128906 C 275.355469 190.261719 275.453125 190.410156 275.519531 190.578125 C 275.585938 190.742188 275.621094 190.9375 275.621094 191.164062 C 275.621094 191.269531 275.609375 191.378906 275.59375 191.488281 C 275.578125 191.59375 275.550781 191.71875 275.519531 191.859375 C 275.492188 191.984375 275.449219 192.128906 275.386719 192.296875 C 275.324219 192.460938 275.257812 192.625 275.191406 192.789062 C 275.117188 192.949219 275.046875 193.097656 274.972656 193.222656 C 274.894531 193.351562 274.835938 193.4375 274.785156 193.480469 C 274.460938 193.777344 274.078125 194.058594 273.640625 194.320312 C 273.199219 194.578125 272.742188 194.808594 272.265625 195.003906 C 271.785156 195.199219 271.308594 195.351562 270.835938 195.46875 C 270.355469 195.585938 269.917969 195.644531 269.523438 195.644531 C 269.324219 195.644531 269.101562 195.605469 268.863281 195.523438 C 268.621094 195.445312 268.398438 195.34375 268.195312 195.214844 C 267.992188 195.085938 267.824219 194.9375 267.683594 194.769531 C 267.550781 194.605469 267.480469 194.441406 267.480469 194.273438 C 267.480469 194.191406 267.503906 194.097656 267.554688 193.992188 C 267.605469 193.890625 267.667969 193.792969 267.742188 193.707031 C 267.816406 193.617188 267.898438 193.546875 267.984375 193.484375 C 268.070312 193.421875 268.148438 193.386719 268.222656 193.386719 Z M 268.222656 193.386719 " fill-opacity="1" fill-rule="nonzero"/><path fill="#000000" d="M 278.765625 193.386719 C 278.832031 193.386719 278.890625 193.394531 278.945312 193.414062 C 278.996094 193.429688 279.058594 193.449219 279.125 193.46875 C 279.191406 193.488281 279.265625 193.507812 279.347656 193.527344 C 279.429688 193.542969 279.539062 193.550781 279.671875 193.550781 C 280.0625 193.550781 280.496094 193.507812 280.972656 193.425781 C 281.449219 193.34375 281.902344 193.234375 282.324219 193.101562 C 282.746094 192.972656 283.109375 192.820312 283.410156 192.648438 C 283.714844 192.480469 283.886719 192.304688 283.929688 192.121094 C 283.953125 192.019531 283.964844 191.933594 283.964844 191.859375 C 283.964844 191.71875 283.898438 191.582031 283.761719 191.453125 C 283.625 191.324219 283.453125 191.203125 283.246094 191.085938 C 283.039062 190.972656 282.8125 190.863281 282.570312 190.765625 C 282.332031 190.664062 282.109375 190.570312 281.902344 190.488281 L 281.476562 190.316406 C 281.261719 190.234375 281.050781 190.132812 280.84375 190.011719 C 280.636719 189.890625 280.445312 189.753906 280.265625 189.59375 C 280.085938 189.4375 279.929688 189.253906 279.792969 189.042969 C 279.65625 188.832031 279.554688 188.585938 279.488281 188.3125 C 279.457031 188.195312 279.425781 188.082031 279.40625 187.964844 C 279.386719 187.847656 279.375 187.722656 279.375 187.59375 C 279.375 187.375 279.449219 187.128906 279.59375 186.851562 C 279.738281 186.570312 279.933594 186.296875 280.179688 186.023438 C 280.425781 185.75 280.703125 185.488281 281.011719 185.238281 C 281.324219 184.992188 281.648438 184.785156 281.992188 184.617188 C 282.238281 184.445312 282.480469 184.289062 282.710938 184.144531 C 282.945312 184.003906 283.179688 183.882812 283.414062 183.785156 C 283.652344 183.6875 283.894531 183.609375 284.136719 183.546875 C 284.382812 183.492188 284.640625 183.460938 284.914062 183.460938 C 285.164062 183.460938 285.433594 183.472656 285.722656 183.5 C 286.011719 183.523438 286.277344 183.582031 286.519531 183.671875 C 286.757812 183.761719 286.960938 183.898438 287.121094 184.078125 C 287.285156 184.253906 287.363281 184.492188 287.363281 184.792969 C 287.363281 184.882812 287.351562 185.003906 287.328125 185.152344 C 287.300781 185.300781 287.261719 185.453125 287.203125 185.601562 C 287.144531 185.75 287.074219 185.878906 286.992188 185.988281 C 286.910156 186.09375 286.808594 186.148438 286.691406 186.148438 C 286.5 186.148438 286.34375 186.109375 286.21875 186.035156 C 286.097656 185.960938 285.984375 185.878906 285.882812 185.792969 C 285.785156 185.703125 285.683594 185.625 285.574219 185.546875 C 285.464844 185.472656 285.332031 185.433594 285.175781 185.433594 C 284.984375 185.433594 284.761719 185.472656 284.507812 185.539062 C 284.253906 185.613281 283.996094 185.707031 283.730469 185.828125 C 283.464844 185.945312 283.207031 186.085938 282.957031 186.246094 C 282.699219 186.402344 282.472656 186.5625 282.273438 186.730469 C 282.066406 186.894531 281.90625 187.058594 281.777344 187.222656 C 281.65625 187.382812 281.59375 187.53125 281.59375 187.664062 C 281.59375 187.804688 281.636719 187.921875 281.730469 188.011719 C 281.820312 188.105469 281.933594 188.183594 282.078125 188.25 C 282.261719 188.347656 282.46875 188.449219 282.707031 188.546875 C 282.941406 188.648438 283.179688 188.75 283.421875 188.847656 C 283.664062 188.945312 283.898438 189.046875 284.125 189.144531 C 284.351562 189.246094 284.550781 189.335938 284.71875 189.417969 C 284.941406 189.535156 285.140625 189.652344 285.320312 189.761719 C 285.496094 189.875 285.648438 189.996094 285.773438 190.128906 C 285.898438 190.261719 285.992188 190.410156 286.058594 190.578125 C 286.125 190.742188 286.160156 190.9375 286.160156 191.164062 C 286.160156 191.269531 286.152344 191.378906 286.132812 191.488281 C 286.117188 191.59375 286.089844 191.71875 286.058594 191.859375 C 286.035156 191.984375 285.992188 192.128906 285.929688 192.296875 C 285.867188 192.460938 285.800781 192.625 285.730469 192.789062 C 285.660156 192.949219 285.585938 193.097656 285.511719 193.222656 C 285.4375 193.351562 285.375 193.4375 285.324219 193.480469 C 285 193.777344 284.621094 194.058594 284.179688 194.320312 C 283.742188 194.578125 283.28125 194.808594 282.804688 195.003906 C 282.328125 195.199219 281.851562 195.351562 281.375 195.46875 C 280.898438 195.585938 280.460938 195.644531 280.0625 195.644531 C 279.863281 195.644531 279.644531 195.605469 279.402344 195.523438 C 279.160156 195.445312 278.941406 195.34375 278.734375 195.214844 C 278.535156 195.085938 278.363281 194.9375 278.226562 194.769531 C 278.089844 194.605469 278.019531 194.441406 278.019531 194.273438 C 278.019531 194.191406 278.046875 194.097656 278.09375 193.992188 C 278.144531 193.890625 278.207031 193.792969 278.28125 193.707031 C 278.355469 193.617188 278.4375 193.546875 278.523438 193.484375 C 278.613281 193.421875 278.6875 193.386719 278.765625 193.386719 Z M 278.765625 193.386719 " fill-opacity="1" fill-rule="nonzero"/><path fill="#000000" d="M 289.128906 190.824219 C 289.253906 190.316406 289.445312 189.78125 289.707031 189.214844 C 289.96875 188.644531 290.3125 188.070312 290.734375 187.492188 C 291.15625 186.910156 291.664062 186.34375 292.257812 185.789062 C 292.847656 185.234375 293.535156 184.714844 294.316406 184.230469 C 294.441406 184.15625 294.632812 184.078125 294.890625 183.988281 C 295.148438 183.902344 295.414062 183.851562 295.6875 183.832031 C 296.011719 183.484375 296.445312 183.308594 296.992188 183.308594 C 297.640625 183.308594 298.1875 183.472656 298.628906 183.804688 C 299.074219 184.128906 299.441406 184.574219 299.734375 185.140625 C 299.824219 185.324219 299.90625 185.5 299.988281 185.675781 C 300.066406 185.851562 300.132812 186.035156 300.1875 186.226562 C 300.238281 186.421875 300.285156 186.632812 300.316406 186.855469 C 300.351562 187.082031 300.367188 187.335938 300.367188 187.617188 C 300.367188 188.269531 300.261719 188.9375 300.054688 189.617188 C 299.847656 190.296875 299.550781 190.960938 299.171875 191.609375 C 298.789062 192.257812 298.328125 192.875 297.78125 193.46875 C 297.238281 194.0625 296.636719 194.59375 295.972656 195.070312 C 295.523438 195.390625 295.027344 195.644531 294.484375 195.820312 C 293.941406 196 293.335938 196.089844 292.660156 196.089844 C 292.023438 196.089844 291.46875 196.003906 291 195.835938 C 290.53125 195.664062 290.144531 195.421875 289.832031 195.105469 C 289.519531 194.792969 289.289062 194.414062 289.132812 193.972656 C 288.980469 193.53125 288.902344 193.042969 288.902344 192.503906 C 288.90625 191.980469 288.980469 191.421875 289.128906 190.824219 Z M 291.195312 190.984375 C 291.144531 191.175781 291.109375 191.355469 291.089844 191.527344 C 291.070312 191.695312 291.058594 191.859375 291.058594 192.019531 C 291.058594 192.292969 291.09375 192.546875 291.164062 192.785156 C 291.234375 193.019531 291.347656 193.222656 291.507812 193.394531 C 291.664062 193.5625 291.863281 193.695312 292.097656 193.789062 C 292.332031 193.886719 292.621094 193.933594 292.960938 193.933594 C 293.59375 193.933594 294.179688 193.773438 294.722656 193.453125 C 295.269531 193.132812 295.75 192.734375 296.171875 192.253906 C 296.597656 191.769531 296.949219 191.257812 297.238281 190.703125 C 297.523438 190.152344 297.726562 189.644531 297.839844 189.179688 C 297.914062 188.890625 297.980469 188.617188 298.035156 188.359375 C 298.085938 188.101562 298.113281 187.863281 298.113281 187.648438 C 298.113281 187.433594 298.074219 187.230469 297.996094 187.046875 C 297.917969 186.859375 297.816406 186.652344 297.691406 186.417969 C 297.617188 186.277344 297.542969 186.128906 297.46875 185.976562 C 297.394531 185.820312 297.328125 185.671875 297.269531 185.519531 C 297.203125 185.636719 297.132812 185.738281 297.058594 185.824219 C 296.984375 185.914062 296.871094 185.992188 296.722656 186.0625 C 296.574219 186.132812 296.367188 186.195312 296.109375 186.253906 C 295.851562 186.3125 295.519531 186.363281 295.101562 186.402344 C 294.828125 186.496094 294.550781 186.636719 294.269531 186.824219 C 293.984375 187.015625 293.710938 187.242188 293.441406 187.5 C 293.171875 187.757812 292.914062 188.035156 292.671875 188.332031 C 292.425781 188.628906 292.203125 188.933594 292.011719 189.246094 C 291.816406 189.558594 291.644531 189.863281 291.5 190.160156 C 291.355469 190.464844 291.253906 190.738281 291.195312 190.984375 Z M 291.195312 190.984375 " fill-opacity="1" fill-rule="nonzero"/><path fill="#000000" d="M 311.320312 185.375 C 311.027344 185.375 310.71875 185.441406 310.386719 185.582031 C 310.054688 185.71875 309.710938 185.902344 309.351562 186.132812 C 308.996094 186.367188 308.632812 186.628906 308.265625 186.921875 C 307.894531 187.21875 307.53125 187.523438 307.175781 187.835938 C 306.992188 187.996094 306.820312 188.136719 306.652344 188.265625 C 306.488281 188.394531 306.320312 188.492188 306.15625 188.558594 C 306.039062 188.75 305.917969 189 305.789062 189.3125 C 305.660156 189.625 305.535156 189.964844 305.410156 190.332031 C 305.285156 190.699219 305.164062 191.078125 305.054688 191.464844 C 304.941406 191.851562 304.847656 192.210938 304.773438 192.542969 C 304.734375 192.714844 304.699219 192.886719 304.671875 193.050781 C 304.648438 193.21875 304.621094 193.394531 304.585938 193.582031 C 304.550781 193.769531 304.511719 193.96875 304.46875 194.183594 C 304.421875 194.402344 304.367188 194.640625 304.300781 194.90625 C 304.257812 195.0625 304.191406 195.191406 304.101562 195.285156 C 304.007812 195.378906 303.914062 195.453125 303.8125 195.503906 C 303.714844 195.554688 303.621094 195.585938 303.527344 195.597656 C 303.4375 195.609375 303.367188 195.613281 303.316406 195.613281 C 303 195.613281 302.742188 195.539062 302.546875 195.390625 C 302.347656 195.242188 302.246094 194.949219 302.246094 194.519531 C 302.246094 194.402344 302.25 194.28125 302.257812 194.152344 C 302.265625 194.023438 302.292969 193.878906 302.332031 193.722656 C 302.515625 192.933594 302.691406 192.226562 302.863281 191.59375 C 303.03125 190.964844 303.203125 190.378906 303.378906 189.839844 C 303.554688 189.300781 303.730469 188.792969 303.910156 188.316406 C 304.085938 187.839844 304.269531 187.359375 304.457031 186.875 C 304.644531 186.390625 304.839844 185.886719 305.042969 185.367188 C 305.246094 184.851562 305.464844 184.273438 305.695312 183.644531 C 305.746094 183.503906 305.875 183.386719 306.085938 183.289062 C 306.300781 183.195312 306.527344 183.148438 306.765625 183.148438 C 307.082031 183.148438 307.339844 183.21875 307.542969 183.359375 C 307.746094 183.5 307.847656 183.703125 307.847656 183.96875 C 307.847656 183.992188 307.839844 184.039062 307.824219 184.101562 C 307.804688 184.167969 307.78125 184.242188 307.746094 184.316406 L 307.199219 185.609375 C 307.546875 185.335938 307.910156 185.0625 308.289062 184.789062 C 308.664062 184.515625 309.054688 184.269531 309.453125 184.046875 C 309.847656 183.828125 310.25 183.652344 310.652344 183.511719 C 311.054688 183.375 311.449219 183.308594 311.839844 183.308594 C 312.636719 183.308594 313.261719 183.519531 313.707031 183.949219 C 314.15625 184.375 314.378906 185.035156 314.378906 185.933594 C 314.378906 186.445312 314.289062 187.03125 314.113281 187.6875 C 313.933594 188.34375 313.710938 189.046875 313.441406 189.796875 C 313.167969 190.546875 312.878906 191.332031 312.570312 192.160156 C 312.257812 192.984375 311.96875 193.824219 311.707031 194.679688 C 311.628906 194.914062 311.554688 195.109375 311.472656 195.265625 C 311.394531 195.421875 311.300781 195.550781 311.191406 195.644531 C 311.085938 195.738281 310.957031 195.808594 310.8125 195.847656 C 310.667969 195.890625 310.492188 195.910156 310.285156 195.910156 C 309.960938 195.910156 309.734375 195.851562 309.609375 195.734375 C 309.488281 195.613281 309.425781 195.417969 309.425781 195.15625 C 309.425781 194.921875 309.460938 194.636719 309.53125 194.300781 C 309.601562 193.964844 309.699219 193.597656 309.828125 193.195312 C 309.957031 192.792969 310.105469 192.363281 310.277344 191.90625 C 310.445312 191.449219 310.632812 190.984375 310.828125 190.511719 C 310.988281 190.132812 311.144531 189.75 311.296875 189.367188 C 311.449219 188.988281 311.585938 188.617188 311.707031 188.257812 C 311.828125 187.902344 311.925781 187.5625 312 187.238281 C 312.074219 186.914062 312.113281 186.617188 312.113281 186.34375 C 312.113281 186.085938 312.054688 185.859375 311.945312 185.664062 C 311.835938 185.472656 311.625 185.375 311.320312 185.375 Z M 311.320312 185.375 " fill-opacity="1" fill-rule="nonzero"/><path fill="#000000" d="M 334.714844 179.863281 C 334.480469 179.9375 334.03125 180.101562 333.355469 180.359375 C 331.890625 180.914062 330.96875 181.191406 330.59375 181.191406 C 330.335938 181.191406 330.140625 181.117188 330.003906 180.960938 C 329.867188 180.808594 329.796875 180.628906 329.796875 180.421875 C 329.796875 179.839844 330.058594 179.402344 330.582031 179.101562 C 331.105469 178.804688 332.191406 178.449219 333.84375 178.039062 C 335.492188 177.628906 336.488281 177.421875 336.828125 177.421875 C 337.34375 177.421875 337.601562 177.660156 337.601562 178.132812 C 337.601562 178.472656 337.421875 178.949219 337.066406 179.5625 C 336.21875 181.007812 335.195312 183.386719 333.992188 186.699219 C 332.789062 190.015625 332.046875 192.6875 331.761719 194.71875 C 331.722656 195.035156 331.578125 195.277344 331.335938 195.441406 C 331.089844 195.605469 330.804688 195.691406 330.480469 195.691406 C 329.75 195.691406 329.386719 195.359375 329.386719 194.695312 C 329.386719 193.609375 329.988281 191.363281 331.191406 187.960938 C 332.394531 184.5625 333.570312 181.859375 334.714844 179.863281 Z M 334.714844 179.863281 " fill-opacity="1" fill-rule="nonzero"/></svg>